<svg width="338" height="330" viewBox="0 0 338 330" fill="none" xmlns="http://www.w3.org/2000/svg">
<path d="M276.72 49.2228H135.058V259.066H276.72V49.2228Z" fill="white" stroke="#263238" stroke-linecap="round" stroke-linejoin="round"/>
<path d="M276.72 49.2228H272.242V259.066H276.72V49.2228Z" fill="#1366BD" stroke="#263238" stroke-linecap="round" stroke-linejoin="round"/>
<path d="M276.72 135.799H272.242V176.932H276.72V135.799Z" fill="white" stroke="#263238" stroke-linecap="round" stroke-linejoin="round"/>
<path d="M276.72 49.2228H135.058V65.41H276.72V49.2228Z" fill="#1366BD" stroke="#263238" stroke-linecap="round" stroke-linejoin="round"/>
<path d="M149.582 53.9779H265.547C266.287 53.9779 266.996 54.2717 267.519 54.7947C268.042 55.3177 268.336 56.027 268.336 56.7667V58.17C268.336 58.9096 268.042 59.6189 267.519 60.1419C266.996 60.6649 266.287 60.9587 265.547 60.9587H149.582C148.843 60.9563 148.135 60.6618 147.613 60.1393C147.09 59.6168 146.796 58.9089 146.793 58.17V56.7667C146.796 56.0262 147.092 55.3169 147.616 54.7942C148.14 54.2715 148.851 53.9779 149.591 53.9779H149.582Z" fill="white" stroke="#263238" stroke-linecap="round" stroke-linejoin="round"/>
<path d="M202.398 102.593H142.602V167.136H202.398V102.593Z" fill="#1366BD" stroke="#263238" stroke-linecap="round" stroke-linejoin="round"/>
<path d="M202.398 183.064H142.602V247.607H202.398V183.064Z" fill="#1366BD" stroke="#263238" stroke-linecap="round" stroke-linejoin="round"/>
<path d="M214.411 102.593H256.6" stroke="#263238" stroke-linecap="round" stroke-linejoin="round"/>
<path d="M214.411 119.915H256.6" stroke="#263238" stroke-linecap="round" stroke-linejoin="round"/>
<path d="M214.411 124.671H256.6" stroke="#263238" stroke-linecap="round" stroke-linejoin="round"/>
<path d="M214.411 129.417H256.6" stroke="#263238" stroke-linecap="round" stroke-linejoin="round"/>
<path d="M214.411 134.172H256.6" stroke="#263238" stroke-linecap="round" stroke-linejoin="round"/>
<path d="M214.411 138.918H256.6" stroke="#263238" stroke-linecap="round" stroke-linejoin="round"/>
<path d="M214.411 143.664H256.6" stroke="#263238" stroke-linecap="round" stroke-linejoin="round"/>
<path d="M214.411 148.419H256.6" stroke="#263238" stroke-linecap="round" stroke-linejoin="round"/>
<path d="M214.411 153.166H256.6" stroke="#263238" stroke-linecap="round" stroke-linejoin="round"/>
<path d="M214.411 157.921H256.6" stroke="#263238" stroke-linecap="round" stroke-linejoin="round"/>
<path d="M214.411 162.667H256.6" stroke="#263238" stroke-linecap="round" stroke-linejoin="round"/>
<path d="M214.411 107.348H238.714" stroke="#263238" stroke-linecap="round" stroke-linejoin="round"/>
<path d="M214.411 183.064H256.6" stroke="#263238" stroke-linecap="round" stroke-linejoin="round"/>
<path d="M214.411 200.386H256.6" stroke="#263238" stroke-linecap="round" stroke-linejoin="round"/>
<path d="M214.411 205.142H256.6" stroke="#263238" stroke-linecap="round" stroke-linejoin="round"/>
<path d="M214.411 209.888H256.6" stroke="#263238" stroke-linecap="round" stroke-linejoin="round"/>
<path d="M214.411 214.643H256.6" stroke="#263238" stroke-linecap="round" stroke-linejoin="round"/>
<path d="M214.411 219.389H256.6" stroke="#263238" stroke-linecap="round" stroke-linejoin="round"/>
<path d="M214.411 224.144H256.6" stroke="#263238" stroke-linecap="round" stroke-linejoin="round"/>
<path d="M214.411 228.891H256.6" stroke="#263238" stroke-linecap="round" stroke-linejoin="round"/>
<path d="M214.411 233.637H256.6" stroke="#263238" stroke-linecap="round" stroke-linejoin="round"/>
<path d="M214.411 238.392H256.6" stroke="#263238" stroke-linecap="round" stroke-linejoin="round"/>
<path d="M214.411 243.138H256.6" stroke="#263238" stroke-linecap="round" stroke-linejoin="round"/>
<path d="M214.411 187.819H238.714" stroke="#263238" stroke-linecap="round" stroke-linejoin="round"/>
<path d="M165.194 95.1596H161.735L148.598 75.0506V95.1596H145.139V69.0645H148.598L161.771 89.2631V69.0645H165.194V95.1596ZM186.056 83.0978H174.747V92.3458H187.884V95.1596H171.306V69.0645H187.705V71.8963H174.747V80.284H186.056V83.0978ZM197.795 86.9332L198.297 90.3743L199.032 87.2738L204.193 69.0645H207.097L212.133 87.2738L212.85 90.4281L213.405 86.9153L217.456 69.0645H220.915L214.588 95.1596H211.452L206.075 76.1439L205.663 74.1545L205.251 76.1439L199.677 95.1596H196.54L190.232 69.0645H193.673L197.795 86.9332ZM152.827 126.528C149.876 125.68 147.726 124.64 146.375 123.409C145.037 122.167 144.368 120.637 144.368 118.821C144.368 116.766 145.187 115.07 146.823 113.731C148.472 112.381 150.611 111.706 153.24 111.706C155.032 111.706 156.627 112.053 158.025 112.746C159.435 113.439 160.522 114.394 161.287 115.613C162.064 116.832 162.452 118.164 162.452 119.61H158.993C158.993 118.033 158.491 116.796 157.487 115.9C156.484 114.992 155.068 114.538 153.24 114.538C151.543 114.538 150.217 114.914 149.261 115.667C148.317 116.408 147.845 117.441 147.845 118.768C147.845 119.831 148.293 120.733 149.189 121.474C150.097 122.203 151.633 122.872 153.795 123.481C155.97 124.091 157.667 124.766 158.885 125.506C160.116 126.235 161.024 127.09 161.61 128.069C162.207 129.049 162.506 130.202 162.506 131.528C162.506 133.643 161.681 135.34 160.032 136.618C158.383 137.885 156.179 138.518 153.419 138.518C151.627 138.518 149.954 138.178 148.401 137.497C146.847 136.804 145.647 135.86 144.798 134.665C143.962 133.47 143.544 132.114 143.544 130.596H147.003C147.003 132.174 147.582 133.422 148.741 134.342C149.912 135.25 151.471 135.704 153.419 135.704C155.235 135.704 156.627 135.334 157.595 134.593C158.563 133.852 159.047 132.843 159.047 131.564C159.047 130.286 158.599 129.3 157.702 128.607C156.806 127.902 155.181 127.209 152.827 126.528Z" fill="#263238"/>
<path d="M257.529 89.9901H200.861V93.4671H257.529V89.9901Z" fill="#1366BD"/>
<path d="M289.457 315.118C303.151 315.118 314.252 312.157 314.252 308.504C314.252 304.851 303.151 301.889 289.457 301.889C275.764 301.889 264.663 304.851 264.663 308.504C264.663 312.157 275.764 315.118 289.457 315.118Z" fill="#1366BD"/>
<path opacity="0.5" d="M289.457 315.118C303.151 315.118 314.252 312.157 314.252 308.504C314.252 304.851 303.151 301.889 289.457 301.889C275.764 301.889 264.663 304.851 264.663 308.504C264.663 312.157 275.764 315.118 289.457 315.118Z" fill="white"/>
<path d="M252.363 165.813C252.229 165.323 252.199 164.809 252.276 164.306C252.353 163.803 252.534 163.322 252.809 162.894C253.084 162.466 253.446 162.1 253.871 161.821C254.296 161.542 254.775 161.355 255.277 161.273C258.307 160.862 262.035 164.937 263.215 167.404C263.322 167.619 264.528 171.141 264.475 171.141C264.421 171.141 259.112 171.257 256.895 170.3C255.027 169.478 252.873 167.923 252.363 165.813ZM330.332 156.464C329.885 158.582 327.775 160.2 325.925 161.067C324.075 161.934 319.668 162.086 318.623 162.104C318.042 162.801 317.425 163.543 316.755 164.383C315.602 165.867 314.306 167.556 313.027 169.487C312.688 169.996 312.339 170.568 311.991 171.105C312.768 170.318 313.841 169.246 313.957 169.147C316.093 167.449 321.233 165.411 323.789 167.1C324.207 167.393 324.558 167.77 324.819 168.208C325.081 168.646 325.247 169.134 325.307 169.64C325.367 170.146 325.319 170.659 325.167 171.146C325.015 171.633 324.761 172.082 324.424 172.463C323.056 174.135 320.428 174.6 318.39 174.519C316.352 174.439 312.268 172.499 311.392 172.061C310.65 173.277 309.908 174.537 309.211 175.896C307.915 178.359 306.838 180.931 305.993 183.583L306.154 183.663C306.78 182.841 308.129 181.151 308.254 180.982C310.194 179.051 315.074 176.512 317.791 177.871C318.242 178.11 318.637 178.444 318.948 178.848C319.259 179.253 319.48 179.719 319.596 180.216C319.712 180.713 319.721 181.229 319.62 181.73C319.52 182.23 319.314 182.704 319.016 183.118C317.836 184.905 315.28 185.683 313.242 185.799C310.891 185.96 306.038 184.128 305.85 184.056C305.08 186.711 304.483 189.413 304.062 192.145C303.749 194.165 303.508 196.23 303.294 198.295C303.714 197.705 305.492 195.488 305.635 195.345C307.575 193.415 312.455 190.832 315.173 192.235C315.617 192.48 316.005 192.817 316.312 193.222C316.618 193.627 316.835 194.092 316.95 194.587C317.065 195.082 317.074 195.596 316.977 196.094C316.88 196.593 316.68 197.066 316.388 197.482C315.208 199.269 312.652 200.047 310.614 200.163C308.326 200.324 303.669 198.59 303.276 198.438C303.177 199.376 303.07 200.315 302.981 201.262C302.677 204.337 302.391 207.421 302.015 210.46C301.89 211.506 301.72 212.543 301.56 213.579C302.221 212.686 303.455 211.175 303.571 211.059C305.51 209.128 310.391 206.536 313.117 207.939C313.562 208.186 313.95 208.523 314.256 208.929C314.563 209.335 314.78 209.801 314.895 210.296C315.009 210.792 315.019 211.306 314.922 211.806C314.825 212.305 314.624 212.778 314.332 213.195C313.153 214.983 310.596 215.76 308.558 215.876C306.52 215.993 302.561 214.643 301.452 214.241C301.166 215.957 300.853 217.655 300.46 219.318C300.272 220.024 300.129 220.766 299.915 221.436C299.7 222.106 299.504 222.795 299.307 223.465C298.842 224.833 298.413 226.102 297.957 227.362C297.725 228.006 297.493 228.605 297.26 229.221C297.806 228.256 298.681 226.727 298.78 226.602C300.407 224.395 304.831 221.105 307.718 222.08C308.2 222.248 308.641 222.518 309.01 222.871C309.379 223.224 309.668 223.653 309.858 224.127C310.048 224.601 310.133 225.111 310.11 225.621C310.086 226.131 309.953 226.63 309.72 227.085C308.826 229.051 306.413 230.178 304.42 230.66C302.23 231.152 297.511 230.196 296.939 230.079C296.366 231.59 295.794 233.056 295.231 234.414C293.444 238.732 291.835 242.262 290.655 244.72L290.467 245.113H299.048L296.125 303.006C296.017 305.123 295.1 307.118 293.562 308.577C292.025 310.036 289.986 310.848 287.866 310.845C285.748 310.846 283.711 310.033 282.176 308.574C280.64 307.115 279.724 305.122 279.616 303.006L276.613 245.203H285.828C285.828 244.801 285.739 244.372 285.685 243.898C285.381 241.216 284.881 237.409 284.085 232.868C283.853 231.554 283.594 230.187 283.308 228.739C282.709 228.819 277.945 229.427 275.8 228.739C273.851 228.14 271.527 226.835 270.785 224.806C270.586 224.335 270.491 223.827 270.505 223.316C270.519 222.805 270.642 222.303 270.867 221.844C271.091 221.385 271.412 220.98 271.806 220.655C272.201 220.33 272.66 220.093 273.154 219.961C276.121 219.201 280.304 222.821 281.743 225.136C281.842 225.288 282.745 227.165 283.183 228.131C283.004 227.237 282.834 226.415 282.637 225.53C282.36 224.243 282.03 222.848 281.743 221.588L281.18 219.55C281.002 218.853 280.742 218.209 280.528 217.53C280.188 216.538 279.786 215.537 279.393 214.527C278.106 214.884 274.298 215.876 272.34 215.59C270.383 215.304 267.827 214.357 266.79 212.462C266.522 212.027 266.35 211.54 266.286 211.033C266.222 210.526 266.267 210.012 266.418 209.524C266.57 209.036 266.824 208.586 267.164 208.205C267.505 207.824 267.922 207.52 268.39 207.314C271.214 206.116 275.88 209.057 277.668 211.13C277.73 211.193 278.061 211.675 278.454 212.239C278.034 211.273 277.623 210.308 277.167 209.334C275.88 206.599 274.486 203.837 273.091 201.075L272.197 199.341C271.116 199.645 267.004 200.753 264.949 200.449C262.893 200.145 260.435 199.224 259.398 197.33C259.13 196.894 258.958 196.406 258.895 195.899C258.832 195.392 258.878 194.877 259.03 194.389C259.183 193.901 259.438 193.452 259.779 193.071C260.12 192.69 260.539 192.386 261.007 192.181C263.822 190.983 268.497 193.924 270.285 195.998C270.347 196.069 270.741 196.641 271.179 197.276C270.446 195.765 269.731 194.246 269.078 192.717C267.929 190.104 266.955 187.416 266.164 184.673C265.789 184.78 260.989 186.175 258.71 185.844C256.69 185.549 254.241 184.61 253.15 182.716C252.891 182.278 252.726 181.791 252.667 181.286C252.609 180.781 252.657 180.269 252.808 179.783C252.96 179.298 253.212 178.85 253.548 178.468C253.884 178.086 254.297 177.779 254.759 177.567C257.574 176.369 262.249 179.31 264.037 181.384C264.162 181.527 265.583 183.6 266.066 184.36V184.262C265.354 181.547 264.888 178.774 264.671 175.976C264.464 173.479 264.404 170.972 264.493 168.468C264.546 166.144 264.743 163.999 264.922 162.14C265.038 161.13 265.154 160.2 265.27 159.333H265.217C265.217 159.333 264.144 155.758 264.108 155.561C263.652 152.88 264.368 147.383 267.094 145.979C267.552 145.759 268.051 145.638 268.559 145.623C269.067 145.608 269.573 145.7 270.043 145.893C270.513 146.086 270.937 146.376 271.289 146.743C271.64 147.111 271.91 147.548 272.081 148.026C272.877 150.037 272.001 152.558 270.937 154.283C269.874 156.008 266.307 158.564 265.422 159.181C265.315 160.075 265.217 161.04 265.127 162.104C264.975 163.981 264.832 166.099 264.823 168.423C264.823 169.04 264.823 169.701 264.823 170.345C265.029 169.255 265.333 167.762 265.387 167.664C266.227 165.063 269.382 160.513 272.448 160.513C272.956 160.53 273.455 160.653 273.913 160.874C274.371 161.096 274.777 161.411 275.106 161.799C275.434 162.188 275.677 162.64 275.82 163.129C275.963 163.617 276.001 164.129 275.934 164.633C275.71 166.788 273.78 168.62 272.028 169.675C270.276 170.729 265.771 171.364 264.877 171.462C264.922 172.892 264.993 174.349 265.172 175.878C265.456 178.671 265.995 181.432 266.781 184.128H266.951C267.022 183.1 267.219 180.946 267.255 180.776C267.809 178.094 270.446 173.241 273.511 172.91C274.018 172.871 274.527 172.939 275.006 173.109C275.485 173.279 275.923 173.547 276.291 173.897C276.66 174.246 276.952 174.669 277.147 175.138C277.343 175.607 277.438 176.112 277.426 176.62C277.426 178.783 275.719 180.821 274.101 182.063C272.233 183.493 267.174 184.646 266.951 184.691C267.776 187.325 268.773 189.901 269.936 192.405C270.785 194.264 271.724 196.114 272.68 197.964C272.68 197.24 272.966 194.389 273.011 194.21C273.565 191.529 276.202 186.675 279.268 186.345C279.775 186.306 280.285 186.374 280.764 186.544C281.244 186.714 281.682 186.984 282.051 187.334C282.42 187.684 282.711 188.108 282.906 188.578C283.101 189.048 283.195 189.554 283.183 190.063C283.183 192.217 281.475 194.255 279.858 195.497C278.07 196.901 273.19 198.018 272.778 198.116C273.216 198.947 273.672 199.788 274.092 200.628C275.54 203.354 277.006 206.089 278.365 208.833C278.839 209.781 279.259 210.728 279.697 211.684C279.777 210.603 279.956 208.636 279.992 208.467C280.546 205.785 283.191 200.941 286.248 200.61C286.757 200.561 287.27 200.622 287.754 200.788C288.237 200.954 288.679 201.222 289.05 201.573C289.421 201.925 289.713 202.352 289.905 202.826C290.097 203.299 290.185 203.809 290.163 204.319C290.163 206.482 288.456 208.52 286.838 209.763C285.22 211.005 281.163 212.042 280.009 212.319C280.725 213.91 281.395 215.501 281.985 217.101C282.217 217.798 282.503 218.486 282.7 219.166C282.897 219.845 283.111 220.524 283.308 221.195C283.674 222.589 284.023 223.876 284.336 225.199C284.496 225.86 284.64 226.486 284.783 227.13C284.702 226.021 284.595 224.261 284.604 224.1C284.747 221.373 286.615 216.18 289.582 215.385C290.077 215.269 290.59 215.259 291.089 215.355C291.588 215.45 292.061 215.649 292.478 215.939C292.895 216.229 293.247 216.603 293.51 217.037C293.773 217.471 293.943 217.956 294.007 218.46C294.051 218.725 294.069 218.995 294.06 219.264C295.267 221.346 295.916 223.704 295.946 226.111C295.946 226.281 295.66 228.345 295.499 229.4C295.821 228.587 296.152 227.773 296.474 226.924C296.956 225.7 297.421 224.395 297.886 223.134C298.1 222.464 298.315 221.794 298.538 221.114C298.762 220.435 298.914 219.765 299.111 219.076C299.37 218.066 299.593 217.003 299.817 215.948C298.538 215.537 294.82 214.259 293.345 212.945C291.871 211.631 290.262 209.423 290.44 207.269C290.464 206.76 290.595 206.263 290.824 205.808C291.054 205.354 291.376 204.953 291.771 204.631C292.166 204.31 292.624 204.076 293.115 203.943C293.607 203.811 294.121 203.784 294.624 203.863C297.627 204.418 299.906 209.45 300.255 212.158C300.255 212.248 300.255 212.829 300.255 213.517C300.442 212.48 300.63 211.452 300.791 210.388C301.229 207.394 301.577 204.328 301.944 201.253C302.024 200.61 302.114 199.975 302.185 199.332C301.113 198.992 297.073 197.642 295.526 196.257C293.98 194.872 292.443 192.744 292.621 190.59C292.645 190.082 292.776 189.584 293.005 189.13C293.235 188.675 293.557 188.274 293.952 187.953C294.347 187.631 294.805 187.397 295.296 187.264C295.788 187.132 296.302 187.105 296.804 187.185C299.808 187.739 302.087 192.771 302.436 195.479C302.436 195.578 302.436 196.275 302.436 197.053C302.659 195.381 302.909 193.719 303.195 192.083C303.684 189.27 304.359 186.493 305.215 183.77C304.831 183.645 300.067 182.161 298.351 180.633C296.822 179.265 295.258 177.111 295.437 174.957C295.462 174.449 295.594 173.952 295.824 173.498C296.053 173.045 296.376 172.644 296.77 172.323C297.165 172.002 297.622 171.767 298.113 171.635C298.604 171.502 299.117 171.473 299.62 171.552C302.632 172.106 304.903 177.138 305.251 179.846C305.251 180.043 305.323 182.528 305.305 183.422V183.323C306.214 180.67 307.354 178.101 308.71 175.645C309.918 173.451 311.252 171.329 312.706 169.29C314.037 167.378 315.387 165.715 316.558 164.249C317.21 163.463 317.818 162.756 318.399 162.104H318.328C318.274 162.104 319.391 158.529 319.49 158.341C320.598 155.838 324.218 151.664 327.257 151.995C327.769 152.05 328.264 152.215 328.706 152.479C329.149 152.742 329.529 153.099 329.821 153.523C330.113 153.948 330.31 154.43 330.398 154.938C330.486 155.445 330.464 155.966 330.332 156.464ZM295.222 229.936C294.704 229.686 290.682 227.693 289.118 226.004C287.759 226.739 286.36 227.396 284.926 227.97C285.283 229.543 285.614 231.08 285.9 232.528C286.794 237.105 287.392 240.948 287.768 243.648C287.848 244.22 287.911 244.729 287.973 245.203H288.179C288.376 244.801 288.599 244.381 288.849 243.889C290.065 241.493 291.754 238.034 293.596 233.798C294.132 232.582 294.677 231.277 295.222 229.936ZM311.267 171.48C311.311 171.48 312.241 167.905 312.277 167.672C312.652 164.991 311.785 159.512 309.032 158.18C308.568 157.972 308.065 157.864 307.557 157.862C307.048 157.861 306.545 157.966 306.079 158.172C305.614 158.378 305.197 158.679 304.856 159.056C304.515 159.433 304.256 159.878 304.098 160.361C303.356 162.399 304.295 164.884 305.403 166.618C306.708 168.611 311.258 171.48 311.267 171.48Z" fill="#263238"/>
<path d="M124.913 330C173.33 330 212.579 322.597 212.579 313.464C212.579 304.332 173.33 296.928 124.913 296.928C76.4961 296.928 37.2466 304.332 37.2466 313.464C37.2466 322.597 76.4961 330 124.913 330Z" fill="#1366BD"/>
<path opacity="0.5" d="M124.913 330C173.33 330 212.579 322.597 212.579 313.464C212.579 304.332 173.33 296.928 124.913 296.928C76.4961 296.928 37.2466 304.332 37.2466 313.464C37.2466 322.597 76.4961 330 124.913 330Z" fill="white"/>
<path d="M92.2971 244.166H86.8984V270.248H92.2971V244.166Z" fill="#263238"/>
<path opacity="0.4" d="M92.2971 244.166H86.8984V270.248H92.2971V244.166Z" fill="white"/>
<path d="M92.2971 244.166H86.8984V270.248H92.2971V244.166Z" stroke="#263238" stroke-linecap="round" stroke-linejoin="round"/>
<path d="M85.969 129.417C85.969 129.417 46.1044 132.214 44.2453 134.824C42.3861 137.434 43.6822 143.2 45.1391 148.044C46.596 152.889 60.9777 241.19 64.8837 245.096C68.7897 249.002 75.8777 248.081 84.2618 248.081C92.6459 248.081 137.176 246.401 137.176 246.401C137.176 246.401 140.752 247.142 145.936 245.283C151.12 243.424 157.859 240.439 158.789 237.65C159.718 234.861 158.977 230.008 158.038 230.008C157.1 230.008 101.423 225.914 101.423 225.914L85.969 129.417Z" fill="#263238"/>
<path opacity="0.4" d="M85.969 129.417C85.969 129.417 46.1044 132.214 44.2453 134.824C42.3861 137.434 43.6822 143.2 45.1391 148.044C46.596 152.889 60.9777 241.19 64.8837 245.096C68.7897 249.002 75.8777 248.081 84.2618 248.081C92.6459 248.081 137.176 246.401 137.176 246.401C137.176 246.401 140.752 247.142 145.936 245.283C151.12 243.424 157.859 240.439 158.789 237.65C159.718 234.861 158.977 230.008 158.038 230.008C157.1 230.008 101.423 225.914 101.423 225.914L85.969 129.417Z" fill="white"/>
<path d="M85.969 129.417C85.969 129.417 46.1044 132.214 44.2453 134.824C42.3861 137.434 43.6822 143.2 45.1391 148.044C46.596 152.889 60.9777 241.19 64.8837 245.096C68.7897 249.002 75.8777 248.081 84.2618 248.081C92.6459 248.081 137.176 246.401 137.176 246.401C137.176 246.401 140.752 247.142 145.936 245.283C151.12 243.424 157.859 240.439 158.789 237.65C159.718 234.861 158.977 230.008 158.038 230.008C157.1 230.008 101.423 225.914 101.423 225.914L85.969 129.417Z" stroke="#263238" stroke-linecap="round" stroke-linejoin="round"/>
<path d="M85.4148 241.556C76.6553 241.556 70.327 242.119 68.8343 237.981C67.3416 233.842 53.9343 161.791 51.6997 151.36C49.4651 140.929 49.0897 136.272 46.4798 134.967C46.0215 134.787 45.5189 134.751 45.0395 134.864C44.5602 134.978 44.1271 135.235 43.7983 135.602C42.6184 138.462 43.7983 143.646 45.1569 148.008C46.6496 152.853 60.9955 241.154 64.9015 245.06C68.8075 248.966 75.8955 248.045 84.2796 248.045C92.6637 248.045 137.176 246.401 137.176 246.401C139.488 246.717 141.841 246.534 144.076 245.864C144.914 245.063 145.486 244.025 145.718 242.889C145.949 241.754 145.829 240.574 145.373 239.509C144.273 236.533 94.1653 241.556 85.4148 241.556Z" fill="#263238" stroke="#263238" stroke-linecap="round" stroke-linejoin="round"/>
<path d="M133.958 102.325C131.053 92.8325 122.723 81.6954 111.738 81.5077C102.263 81.3558 97.4367 83.063 92.6368 96.1128C87.837 109.163 71.3459 137.801 71.3459 137.801C71.3459 137.801 71.8822 137.89 72.8029 138.015C71.6945 139.294 71.0688 140.035 71.0688 140.035C71.0688 140.035 65.4824 151.217 60.7273 160.996C55.9721 170.774 58.7698 185.299 65.7595 194.246C72.7492 203.193 78.8898 201.227 85.5935 192.843C92.2972 184.458 116.055 123.83 116.055 123.83L123.885 108.912C124.493 109.619 124.975 110.021 125.253 109.94C126.343 109.627 135.666 107.92 133.958 102.325Z" fill="#263238" stroke="#263238" stroke-linecap="round" stroke-linejoin="round"/>
<path d="M113.535 82.9915C113.535 82.9915 126.361 91.9297 123.537 95.5497" stroke="white" stroke-width="0.75" stroke-linecap="round" stroke-linejoin="round"/>
<path d="M118.656 94.2983C115.603 98.92 112.177 103.284 108.413 107.348C98.4108 118.369 78.1567 128.63 76.8696 134.011" stroke="white" stroke-width="0.75" stroke-linecap="round" stroke-linejoin="round"/>
<path d="M120.971 90.1689C120.631 90.9252 120.249 91.6622 119.827 92.3766" stroke="white" stroke-width="0.75" stroke-linecap="round" stroke-linejoin="round"/>
<path d="M77.8708 128.943C75.5915 131.571 74.0541 134.011 73.7949 135.808" stroke="white" stroke-width="0.75" stroke-linecap="round" stroke-linejoin="round"/>
<path d="M107.894 84.0194C107.894 84.0194 106.107 83.0004 103.282 92.2247C100.458 101.449 92.7707 115.813 86.3619 120.943C84.4132 122.494 82.5456 124.144 80.7666 125.886" stroke="white" stroke-width="0.75" stroke-linecap="round" stroke-linejoin="round"/>
<path d="M65.8759 165.357C64.3922 172.052 63.1945 180.973 65.3397 187.113C69.1831 198.134 74.0545 196.337 74.8231 191.216C75.5918 186.094 71.2478 185.853 69.9518 187.64C68.6557 189.428 71.7394 191.743 71.7394 191.743" stroke="white" stroke-width="0.75" stroke-linecap="round" stroke-linejoin="round"/>
<path d="M68.4141 156.062C68.4141 156.062 67.6901 158.162 66.832 161.371" stroke="white" stroke-width="0.75" stroke-linecap="round" stroke-linejoin="round"/>
<path d="M137.838 199.421C137.838 199.421 154.302 196.159 156.948 198.331C159.593 200.503 158.342 214.491 151.2 218.218C144.059 221.946 127.898 216.976 127.898 216.976L137.838 199.421Z" fill="white" stroke="#263238" stroke-linecap="round" stroke-linejoin="round"/>
<path d="M128.363 214.929C128.363 214.929 145.918 220.989 148.403 224.761C150.888 228.533 149.493 248.841 148.868 257.698C148.242 266.556 148.09 293.738 150.575 301.97C153.06 310.202 154.615 314.868 156.17 316.888C157.725 318.908 165.645 323.1 165.028 324.342C164.411 325.585 157.564 325.585 153.837 324.494C150.11 323.404 146.231 319.06 142.968 316.262C139.706 313.464 138.928 313.464 138.928 313.464L140.171 323.296L138.302 322.983C138.302 322.983 137.999 316.619 136.747 313.196C135.496 309.773 133.798 309.317 135.04 306.519C136.282 303.722 141.413 300.459 141.413 300.459C141.039 293.54 139.997 286.673 138.302 279.955C135.505 268.925 131.778 263.33 131.313 250.593C130.848 237.856 133.646 233.815 133.646 233.815L115 234.128L128.363 214.929Z" fill="white" stroke="#263238" stroke-linecap="round" stroke-linejoin="round"/>
<path d="M153.837 324.458C157.564 325.549 164.402 325.549 165.027 324.306C165.564 323.225 159.665 319.909 157.072 317.737C156.416 317.869 155.749 317.935 155.079 317.933C152.29 317.933 147.312 315.297 141.877 309.388C139.142 306.421 138.454 304.124 138.445 302.568C137.058 303.613 135.899 304.93 135.04 306.439C133.797 309.236 135.504 309.701 136.747 313.116C137.989 316.53 138.302 322.903 138.302 322.903L140.17 323.216L138.928 313.384C138.928 313.384 139.705 313.384 142.968 316.181C146.23 318.979 150.11 323.368 153.837 324.458Z" fill="#263238" stroke="#263238" stroke-linecap="round" stroke-linejoin="round"/>
<path d="M147.008 198.331C154.615 196.936 157.564 197.553 158.968 199.573C160.371 201.593 162.847 222.41 163.008 233.601C163.169 244.792 168.594 258.762 169.685 267.62C170.661 274.591 172.759 281.358 175.897 287.659C177.765 291.539 180.714 291.539 181.805 293.255C182.895 294.971 177.765 295.266 174.967 295.266C172.169 295.266 166.109 291.074 164.402 287.659C163.958 286.693 163.313 285.833 162.51 285.137C161.707 284.44 160.764 283.923 159.745 283.619C159.745 283.619 159.28 291.664 158.655 292.012C158.029 292.361 157.564 291.539 157.564 291.539C157.564 291.539 157.564 286.417 157.412 284.084C157.26 281.751 155.857 278.024 155.705 276.165C155.553 274.306 160.988 271.812 160.988 271.812C160.988 271.812 158.306 258.61 156.17 253.042C154.034 247.473 147.008 236.39 143.433 227.854C139.858 219.318 142.539 206.724 142.539 206.724" fill="white"/>
<path d="M147.008 198.331C154.615 196.936 157.564 197.553 158.968 199.573C160.371 201.593 162.847 222.41 163.008 233.601C163.169 244.792 168.594 258.762 169.685 267.62C170.661 274.591 172.759 281.358 175.897 287.659C177.765 291.539 180.714 291.539 181.805 293.255C182.895 294.971 177.765 295.266 174.967 295.266C172.169 295.266 166.109 291.074 164.402 287.659C163.958 286.693 163.313 285.833 162.51 285.137C161.707 284.44 160.764 283.923 159.745 283.619C159.745 283.619 159.28 291.664 158.655 292.012C158.029 292.361 157.564 291.539 157.564 291.539C157.564 291.539 157.564 286.417 157.412 284.084C157.26 281.751 155.857 278.024 155.705 276.165C155.553 274.306 160.988 271.812 160.988 271.812C160.988 271.812 158.306 258.61 156.17 253.042C154.034 247.473 147.008 236.39 143.433 227.854C139.858 219.318 142.539 206.724 142.539 206.724" stroke="#263238" stroke-linecap="round" stroke-linejoin="round"/>
<path d="M177.3 289.751C176.547 290.407 175.611 290.816 174.619 290.922C172.447 291.074 168.094 288.589 163.589 281.912C160.308 277.041 159.915 273.743 159.942 272.312C158.378 273.135 155.553 274.806 155.669 276.165C155.821 278.024 157.225 281.751 157.377 284.084C157.529 286.417 157.529 291.539 157.529 291.539C157.529 291.539 158.002 292.316 158.619 292.012C159.236 291.708 159.71 283.619 159.71 283.619C160.73 283.921 161.673 284.437 162.476 285.134C163.28 285.831 163.924 286.692 164.366 287.659C166.074 291.074 172.134 295.266 174.931 295.266C177.729 295.266 182.851 294.962 181.769 293.255C180.974 291.932 179.007 291.619 177.3 289.751Z" fill="#263238" stroke="#263238" stroke-linecap="round" stroke-linejoin="round"/>
<path d="M116.404 136.818C117.432 137.375 118.326 138.15 119.023 139.089C119.721 140.028 120.206 141.107 120.444 142.252C121.212 146.14 122.768 185.746 123.232 186.523C123.697 187.301 134.852 196.471 134.852 196.471L131.277 200.664C131.277 200.664 119.782 195.068 116.207 192.119C112.632 189.169 111.237 187.927 111.863 182.796C112.489 177.665 114.187 152.191 114.187 148.312C114.187 144.433 114.071 134.967 116.404 136.818Z" fill="#1366BD" stroke="#263238" stroke-linecap="round" stroke-linejoin="round"/>
<path d="M99.6357 128.711C99.6357 128.711 84.8786 134.145 79.2833 136.165C73.6879 138.185 68.0926 137.72 67.7887 139.428C67.4848 141.135 71.5159 163.042 74.4656 172.204C77.4152 181.366 79.2833 187.122 78.8185 190.081C78.3537 193.039 65.7686 209.039 69.3439 223.635C72.9192 238.231 96.3732 237.614 110.353 237.462C124.332 237.31 123.76 236.685 123.76 236.685L141.467 198.938L118.004 202.353C118.004 202.353 108.377 195.202 109.307 191.323C110.236 187.444 114.75 179.516 115.832 175.324C116.913 171.132 118.629 161.657 117.074 155.597C115.519 149.537 119.255 138.507 116.457 136.827C113.66 135.146 102.728 128.711 99.6357 128.711Z" fill="#1366BD" stroke="#263238" stroke-linecap="round" stroke-linejoin="round"/>
<path d="M78.5234 210.826C78.5234 210.826 85.4148 205.606 93.79 206.724C102.165 207.841 122.482 214.768 122.482 214.768" stroke="#263238" stroke-linecap="round" stroke-linejoin="round"/>
<path d="M74.2329 210.639C74.2329 210.639 76.101 206.536 82.2773 204.865" stroke="#263238" stroke-linecap="round" stroke-linejoin="round"/>
<path d="M134.888 196.471C136.864 196.004 138.891 195.788 140.921 195.828C142.704 195.899 144.45 196.349 146.045 197.147C147.64 197.945 149.047 199.074 150.172 200.458C150.172 200.458 150.95 202.451 149.663 202.576C148.376 202.701 145.712 201.182 143.263 201.057C141.648 200.949 140.045 200.704 138.472 200.324C138.472 200.324 141.431 202.773 140.528 203.005C139.625 203.238 136.953 201.852 135.907 201.468C134.861 201.084 132.564 200.699 131.536 199.68C130.508 198.661 134.888 196.471 134.888 196.471Z" fill="white" stroke="#263238" stroke-linecap="round" stroke-linejoin="round"/>
<path d="M149.592 202.004C148.509 201.249 147.367 200.583 146.177 200.011C145.033 199.591 141.413 198.93 141.413 198.93" stroke="#263238" stroke-width="0.5" stroke-linecap="round" stroke-linejoin="round"/>
<path d="M143.04 197.768C143.04 197.768 146.177 198.76 147.455 199.332C148.476 199.928 149.384 200.699 150.137 201.611" stroke="#263238" stroke-width="0.5" stroke-linecap="round" stroke-linejoin="round"/>
<path d="M93.96 130.623C93.96 130.623 90.3847 133.198 94.3443 146.14C96.6146 153.505 105.374 176.432 105.526 175.19C105.678 173.947 107.859 159.494 107.698 151.575C107.669 145.131 106.622 138.733 104.597 132.617C103.041 128.425 97.0705 127.522 93.96 130.623Z" fill="white" stroke="#263238" stroke-linecap="round" stroke-linejoin="round"/>
<path d="M92.1631 134.485C92.3535 137.166 92.8238 139.82 93.5664 142.404C94.6479 145.666 96.2032 149.09 96.2032 149.09C96.2032 149.09 101.486 144.737 101.95 144.737C102.415 144.737 107.698 147.535 107.698 146.909C107.156 142.485 106.223 138.118 104.909 133.859C103.041 127.96 98.0981 126.306 95.3094 128.496C92.5206 130.686 92.1631 134.485 92.1631 134.485Z" fill="white" stroke="#263238" stroke-linecap="round" stroke-linejoin="round"/>
<path d="M101.039 121.131L97.2847 131.857C97.5439 132.697 97.8657 133.734 98.1785 135.093C99.4209 139.749 101.906 145.961 102.648 146.274C103.389 146.587 102.183 140.992 103.425 136.335C104.668 131.678 107.313 124.831 107.465 124.367L102.335 120.89L101.039 121.131Z" fill="white" stroke="#263238" stroke-linecap="round" stroke-linejoin="round"/>
<path d="M121.874 97.0871C118.415 101.556 113.722 107.321 109.566 111.648C101.799 119.692 100.351 120.586 101.727 121.363C103.738 123.151 109.825 128.621 112.051 129.667C114.732 130.909 115.778 128.425 119.818 124.697C123.858 120.97 127.585 109.627 126.808 106.052C126.017 102.668 124.31 99.5659 121.874 97.0871Z" fill="white" stroke="#263238" stroke-linecap="round" stroke-linejoin="round"/>
<path d="M121.525 111.96C121.525 111.96 119.818 115.688 119.818 117.86C119.818 120.032 120.283 119.88 119.818 120.041C119.353 120.201 116.243 118.637 116.243 118.637" stroke="#263238" stroke-linecap="round" stroke-linejoin="round"/>
<path d="M114.071 122.061C114.071 122.061 110.96 121.587 110.496 118.637" stroke="#263238" stroke-linecap="round" stroke-linejoin="round"/>
<path d="M116.52 112.622C116.261 113.256 115.823 113.685 115.546 113.569C115.269 113.453 115.251 112.845 115.546 112.211C115.841 111.576 116.234 111.156 116.511 111.263C116.788 111.37 116.77 111.996 116.52 112.622Z" fill="#263238"/>
<path d="M123.278 114.66C123.536 114.024 123.518 113.416 123.239 113.303C122.96 113.19 122.525 113.614 122.267 114.25C122.01 114.887 122.028 115.494 122.307 115.607C122.586 115.72 123.021 115.296 123.278 114.66Z" fill="#263238"/>
<path d="M113.937 107.92C113.937 107.92 117.039 105.435 119.059 106.678" stroke="#263238" stroke-linecap="round" stroke-linejoin="round"/>
<path d="M123.545 108.385C123.545 108.385 125.878 108.072 126.03 110.87" stroke="#263238" stroke-linecap="round" stroke-linejoin="round"/>
<path d="M144.22 154.935L147.178 140.795L154.481 139.705L151.692 152.862L144.22 154.935Z" fill="#263238" stroke="#263238" stroke-linecap="round" stroke-linejoin="round"/>
<path d="M126.191 168.933L137.399 162.676L140.975 152.987C141.847 152.507 142.868 152.372 143.835 152.611C144.629 152.919 145.469 153.088 146.32 153.112L153.149 151.119C153.149 151.119 153.774 150.743 153.774 152.013C153.774 153.282 153.399 153.747 152.532 154.864C151.665 155.981 151.638 157.599 151.29 159.333C150.941 161.067 148.805 162.318 147.187 162.81C145.569 163.302 140.224 166.662 139.482 167.163C138.74 167.663 127.55 173.992 127.55 173.992L126.191 168.933Z" fill="white" stroke="#263238" stroke-linecap="round" stroke-linejoin="round"/>
<path d="M146.356 153.076L142.128 154.81" stroke="#263238" stroke-linecap="round" stroke-linejoin="round"/>
<path d="M71.0332 150.484C71.0332 150.484 88.5879 193.388 90.2951 194.916C92.0023 196.445 129.757 174.296 129.757 174.296L125.878 166.993L97.4457 176.477L83.4663 144.004" fill="#1366BD"/>
<path d="M71.0332 150.484C71.0332 150.484 88.5879 193.388 90.2951 194.916C92.0023 196.445 129.757 174.296 129.757 174.296L125.878 166.993L97.4457 176.477L83.4663 144.004" stroke="#263238" stroke-linecap="round" stroke-linejoin="round"/>
<path d="M128.068 314.769L102.844 305.393C108.475 304.276 123.25 301.353 124.153 301.353C125.279 301.353 124.341 298.376 124.341 298.376L94.7284 300.254V268.755H84.1098V299.994L58.028 299.494L57.6526 301.728L77.2899 305.688L48.1602 317.933V320.722L91.3766 310.157L128.256 318.202L128.068 314.769Z" fill="#263238" stroke="#263238" stroke-linecap="round" stroke-linejoin="round"/>
<path d="M53.7467 322.313C53.7467 322.812 53.5989 323.299 53.3219 323.713C53.045 324.128 52.6513 324.451 52.1907 324.642C51.7302 324.833 51.2234 324.882 50.7344 324.785C50.2455 324.688 49.7963 324.448 49.4438 324.095C49.0913 323.743 48.8513 323.294 48.754 322.805C48.6567 322.316 48.7067 321.809 48.8974 321.348C49.0882 320.888 49.4113 320.494 49.8258 320.217C50.2403 319.94 50.7276 319.792 51.2261 319.792C51.5575 319.791 51.8858 319.856 52.1921 319.982C52.4985 320.108 52.7768 320.294 53.0111 320.528C53.2454 320.762 53.431 321.041 53.5573 321.347C53.6835 321.653 53.7479 321.982 53.7467 322.313Z" fill="#263238" stroke="#263238" stroke-linecap="round" stroke-linejoin="round"/>
<path d="M128.631 319.891C128.631 320.389 128.483 320.877 128.206 321.291C127.929 321.706 127.536 322.029 127.075 322.22C126.614 322.41 126.108 322.46 125.619 322.363C125.13 322.266 124.681 322.026 124.328 321.673C123.976 321.321 123.736 320.871 123.638 320.383C123.541 319.894 123.591 319.387 123.782 318.926C123.972 318.466 124.296 318.072 124.71 317.795C125.125 317.518 125.612 317.37 126.11 317.37C126.442 317.369 126.77 317.433 127.076 317.56C127.383 317.686 127.661 317.872 127.895 318.106C128.13 318.34 128.315 318.618 128.442 318.925C128.568 319.231 128.632 319.559 128.631 319.891Z" fill="#263238" stroke="#263238" stroke-linecap="round" stroke-linejoin="round"/>
<path d="M61.9427 303.775C61.9445 304.145 61.8364 304.507 61.6322 304.815C61.428 305.124 61.1369 305.365 60.7957 305.507C60.4545 305.65 60.0786 305.688 59.7157 305.617C59.3527 305.546 59.019 305.369 58.7569 305.108C58.4947 304.847 58.3159 304.514 58.2431 304.152C58.1703 303.789 58.2068 303.413 58.3479 303.071C58.489 302.729 58.7284 302.437 59.0358 302.231C59.3432 302.026 59.7048 301.916 60.0746 301.916C60.5685 301.916 61.0423 302.112 61.3924 302.46C61.7425 302.808 61.9403 303.281 61.9427 303.775Z" fill="#263238" stroke="#263238" stroke-linecap="round" stroke-linejoin="round"/>
<path d="M124.716 303.212C124.718 303.582 124.61 303.945 124.405 304.253C124.2 304.562 123.909 304.803 123.567 304.945C123.225 305.088 122.849 305.125 122.486 305.054C122.123 304.982 121.789 304.804 121.527 304.542C121.265 304.28 121.087 303.946 121.015 303.583C120.944 303.22 120.981 302.844 121.124 302.502C121.266 302.16 121.507 301.869 121.816 301.664C122.124 301.459 122.487 301.351 122.857 301.353C123.35 301.353 123.823 301.549 124.172 301.897C124.52 302.246 124.716 302.719 124.716 303.212Z" fill="#263238" stroke="#263238" stroke-linecap="round" stroke-linejoin="round"/>
</svg>
