<svg width="25" height="24" viewBox="0 0 25 24" fill="none" xmlns="http://www.w3.org/2000/svg">
<path d="M22.3055 10.0415H21.5V9.99996H12.5V14H18.1515C17.327 16.3285 15.1115 18 12.5 18C9.1865 18 6.5 15.3135 6.5 12C6.5 8.68646 9.1865 5.99997 12.5 5.99997C14.0295 5.99997 15.421 6.57696 16.4805 7.51946L19.309 4.69097C17.523 3.02647 15.134 1.99997 12.5 1.99997C6.9775 1.99997 2.5 6.47747 2.5 12C2.5 17.5225 6.9775 22 12.5 22C18.0225 22 22.5 17.5225 22.5 12C22.5 11.3295 22.431 10.675 22.3055 10.0415Z" fill="#FFC107"/>
<path d="M3.65283 7.34547L6.93833 9.75496C7.82733 7.55396 9.98033 5.99997 12.4998 5.99997C14.0293 5.99997 15.4208 6.57696 16.4803 7.51946L19.3088 4.69097C17.5228 3.02647 15.1338 1.99997 12.4998 1.99997C8.65883 1.99997 5.32783 4.16847 3.65283 7.34547Z" fill="#FF3D00"/>
<path d="M12.5002 22C15.0832 22 17.4302 21.0115 19.2047 19.404L16.1097 16.785C15.0719 17.5742 13.8039 18.001 12.5002 18C9.89916 18 7.69066 16.3415 6.85866 14.027L3.59766 16.5395C5.25266 19.778 8.61366 22 12.5002 22Z" fill="#4CAF50"/>
<path d="M22.3055 10.0415H21.5V9.99997H12.5V14H18.1515C17.7571 15.1082 17.0467 16.0766 16.108 16.7855L16.1095 16.7845L19.2045 19.4035C18.9855 19.6025 22.5 17 22.5 12C22.5 11.3295 22.431 10.675 22.3055 10.0415Z" fill="#1976D2"/>
</svg>
