<svg width="330" height="330" viewBox="0 0 330 330" fill="none" xmlns="http://www.w3.org/2000/svg">
<path d="M327.302 180.625C327.302 180.625 321.304 175.659 312.554 191.228C303.805 206.797 300.272 215.844 300.272 215.844C300.272 215.844 298.015 219.072 295.998 216.672C293.981 214.271 291.43 207.807 287.666 208.651C283.801 209.529 282.201 213.998 282.487 220.769C282.773 227.539 282.874 242.38 282.881 243.729C282.889 245.078 282.054 246.924 280.439 245.542C278.823 244.16 269.803 231.736 264.555 236.669C259.307 241.602 263.009 260.316 263.349 262.369C263.689 264.422 263.287 265.249 262.36 265.68C261.432 266.11 258.773 261.632 256.076 258.23C253.378 254.829 249.684 251.344 246.878 254.464C244.072 257.585 242.333 271.275 253.061 294.566L258.696 305.004L270.004 305.194C294.243 304.052 304.601 295.775 305.799 291.636C306.997 287.498 302.382 285.71 298.278 284.824C294.174 283.939 289.227 283.616 289.134 282.54C289.042 281.464 289.513 280.661 291.368 280.007C293.223 279.353 310.305 273.775 311.805 266.474C313.304 259.174 298.781 256.732 296.879 255.88C294.978 255.027 296.106 253.347 297.188 252.71C298.27 252.072 310.483 245.004 316.148 241.999C321.814 238.995 324.72 235.378 323.561 231.289C322.432 227.357 315.893 228.094 312.979 227.349C310.065 226.604 311.611 222.937 311.611 222.937C311.611 222.937 317.331 215.24 325.833 199.53C334.336 183.82 327.194 180.493 327.194 180.493" fill="#EBEBEB"/>
<path d="M319.442 194.531C319.393 194.644 319.339 194.755 319.279 194.862C319.163 195.102 318.993 195.425 318.777 195.839L316.798 199.571C315.074 202.808 312.547 207.476 309.409 213.237C303.133 224.742 294.344 240.551 284.582 258.015C274.82 275.48 265.985 291.264 259.655 302.711C256.501 308.447 253.951 313.09 252.173 316.31L250.14 320.01L249.599 320.962C249.541 321.073 249.476 321.181 249.406 321.284L249.568 320.945L250.078 319.968C250.542 319.141 251.207 317.849 252.057 316.244C253.781 312.999 256.308 308.331 259.446 302.578C265.722 291.065 274.511 275.264 284.281 257.792C294.051 240.319 302.87 224.551 309.192 213.096C312.346 207.368 314.904 202.725 316.674 199.497L318.715 195.805C318.947 195.392 319.125 195.077 319.248 194.845C319.372 194.614 319.442 194.531 319.442 194.531Z" fill="#E0E0E0"/>
<path d="M290.897 217.913C291 218.179 291.075 218.457 291.121 218.741C291.252 219.287 291.414 220.082 291.608 221.058C291.986 223.02 292.45 225.743 292.906 228.764C293.362 231.785 293.749 234.426 294.05 236.487C294.197 237.414 294.313 238.192 294.413 238.821C294.475 239.106 294.509 239.397 294.514 239.69C294.406 239.425 294.328 239.147 294.282 238.862C294.151 238.316 293.988 237.521 293.81 236.545C293.447 234.575 293.038 231.843 292.558 228.831C292.079 225.818 291.677 223.169 291.36 221.116L290.989 218.782C290.927 218.498 290.895 218.206 290.897 217.913Z" fill="#E0E0E0"/>
<path d="M295.535 239.988C295.535 239.889 300.713 238.622 307.129 237.165C313.544 235.709 318.8 234.6 318.823 234.682C318.846 234.765 313.637 236.048 307.229 237.505C300.822 238.962 295.55 240.087 295.535 239.988Z" fill="#E0E0E0"/>
<path d="M279.411 266.052C279.686 266.025 279.963 266.025 280.238 266.052L282.495 266.234C284.396 266.383 287.024 266.582 289.93 266.681C292.837 266.781 295.472 266.789 297.381 266.772H299.638C299.916 266.743 300.196 266.743 300.473 266.772C300.202 266.842 299.925 266.878 299.646 266.88C299.113 266.93 298.34 266.979 297.389 267.021C295.48 267.103 292.837 267.145 289.923 267.021C287.009 266.896 284.373 266.681 282.471 266.466C281.521 266.35 280.756 266.251 280.222 266.168C279.948 266.17 279.675 266.131 279.411 266.052Z" fill="#E0E0E0"/>
<path d="M271.109 247.073C271.268 247.292 271.4 247.531 271.504 247.785L272.462 249.771C273.235 251.427 274.34 253.794 275.515 256.393C276.69 258.992 277.726 261.359 278.468 263.056L279.326 265.1C279.445 265.345 279.539 265.603 279.604 265.87C279.445 265.65 279.31 265.411 279.202 265.158C278.947 264.62 278.622 263.958 278.244 263.172C277.471 261.516 276.373 259.149 275.198 256.55C274.023 253.951 272.98 251.584 272.238 249.887C271.905 249.06 271.612 248.397 271.38 247.843C271.26 247.599 271.169 247.341 271.109 247.073Z" fill="#E0E0E0"/>
<path d="M254.144 268.154C254.342 268.437 254.51 268.743 254.646 269.065C254.963 269.727 255.419 270.58 255.883 271.606C256.911 273.758 258.317 276.746 259.848 280.057C261.378 283.368 262.754 286.372 263.713 288.557C264.176 289.6 264.555 290.469 264.849 291.148C265.003 291.46 265.13 291.787 265.227 292.125C265.035 291.839 264.869 291.534 264.733 291.214L263.488 288.673C262.46 286.521 261.054 283.533 259.523 280.222C257.993 276.912 256.617 273.907 255.659 271.722L254.522 269.123C254.369 268.813 254.242 268.489 254.144 268.154Z" fill="#E0E0E0"/>
<path d="M265.127 291.471C265.479 291.438 265.834 291.438 266.186 291.471L269.046 291.587C271.465 291.686 274.804 291.81 278.499 291.827C282.193 291.843 285.532 291.785 287.952 291.719L290.819 291.645C291.172 291.614 291.526 291.614 291.878 291.645C291.532 291.722 291.18 291.767 290.827 291.777C290.155 291.835 289.173 291.909 287.967 291.976C285.548 292.108 282.193 292.224 278.499 292.199C274.804 292.174 271.45 292.009 269.038 291.843C267.824 291.76 266.851 291.678 266.17 291.611C265.82 291.594 265.471 291.547 265.127 291.471Z" fill="#E0E0E0"/>
<path d="M301.189 128.465L243.886 147.8L256.056 189.159L313.359 169.823L301.189 128.465Z" fill="white"/>
<path d="M313.366 169.799C313.366 169.799 313.281 169.543 313.126 169.046C312.972 168.549 312.748 167.813 312.462 166.861C311.89 164.941 311.047 162.135 309.973 158.542C307.84 151.358 304.771 141.053 301.038 128.489L301.239 128.605L243.956 147.981L244.088 147.708C248.424 162.449 252.544 176.47 256.246 189.093L256.014 188.96L297.304 175.129L309.123 171.198L312.268 170.155L313.088 169.89L313.374 169.807L313.111 169.907L312.338 170.188L309.246 171.256L297.498 175.278L256.153 189.349L255.976 189.407L255.921 189.217C252.204 176.619 248.076 162.606 243.732 147.832L243.67 147.625L243.864 147.559L301.177 128.257L301.331 128.207L301.378 128.373C305.057 140.995 308.079 151.358 310.182 158.584C311.217 162.168 312.029 164.965 312.578 166.861C312.848 167.804 313.057 168.516 313.196 169.029C313.335 169.543 313.366 169.799 313.366 169.799Z" fill="#E0E0E0"/>
<path d="M301.192 128.439C301.192 128.439 301.192 128.505 301.115 128.629L300.852 129.159L299.801 131.187C298.866 132.975 297.528 135.508 295.882 138.636C292.512 144.943 287.867 153.626 282.696 163.31L282.611 163.467L282.448 163.401L280.678 162.698L254.638 152.235L246.762 149.024L244.629 148.13L244.072 147.882C244.006 147.862 243.944 147.831 243.887 147.791C243.956 147.795 244.024 147.812 244.088 147.84L244.652 148.047L246.816 148.875L254.723 151.946L280.81 162.284L282.58 162.995L282.34 163.087C287.55 153.427 292.234 144.77 295.627 138.479C297.328 135.383 298.719 132.876 299.662 131.104L300.775 129.118C300.898 128.911 300.991 128.745 301.068 128.605C301.104 128.545 301.145 128.489 301.192 128.439Z" fill="#E0E0E0"/>
<path d="M80.8901 33.4856C80.7688 32.9435 80.7091 32.3877 80.7123 31.8302C80.6951 31.1771 80.6279 30.5265 80.5113 29.8851C80.4134 29.0016 80.2532 28.1273 80.0321 27.2696C79.506 24.9008 78.6514 22.6298 77.4969 20.5321C74.7995 15.4893 70.5479 11.6084 65.4711 9.55458C60.3943 7.5008 54.8085 7.40212 49.6712 9.27546C47.5397 10.0348 45.5299 11.1403 43.7118 12.5531C41.7879 13.967 40.0933 15.7089 38.6955 17.7097C35.677 21.8852 33.9843 26.9849 33.8647 32.2638C33.7451 37.5427 35.2049 42.7242 38.0308 47.0516C38.7049 48.0836 39.4407 49.0679 40.2336 49.9982C41.0406 50.8846 41.9003 51.714 42.8075 52.4813C44.556 53.9755 46.5086 55.173 48.5968 56.0321C53.6532 58.1625 59.2432 58.3485 64.4134 56.5584C69.5835 54.7682 74.0136 51.1128 76.9481 46.2156C78.1951 44.1713 79.1511 41.9397 79.7848 39.594C80.0382 38.746 80.237 37.8804 80.3799 37.0033C80.5212 36.3661 80.6194 35.7188 80.6736 35.0665C80.6937 34.5061 80.7768 33.9503 80.921 33.4111C80.9798 33.9611 80.9798 34.5165 80.921 35.0665C80.9159 35.7298 80.8591 36.3916 80.7509 37.0447C80.6528 37.9452 80.49 38.8362 80.264 39.7099C79.6995 42.1373 78.7841 44.4552 77.551 46.5798C75.7481 49.7246 73.3381 52.4203 70.4826 54.4859C67.6271 56.5516 64.3922 57.9395 60.9947 58.5566C56.6908 59.3304 52.2716 58.8471 48.2026 57.1578C45.9971 56.2713 43.9323 55.0261 42.0809 53.4662C41.1217 52.6678 40.2128 51.8024 39.3602 50.8755C38.523 49.9008 37.7483 48.8666 37.0414 47.7799C34.0461 43.225 32.4949 37.761 32.616 32.1916C32.737 26.6222 34.5239 21.2414 37.7139 16.8406C39.1951 14.7393 40.9891 12.9133 43.0239 11.4358C44.9414 9.97119 47.0584 8.83213 49.3002 8.05875C53.4414 6.58816 57.8755 6.33659 62.1386 7.33037C65.504 8.12232 68.6722 9.67613 71.4304 11.8875C74.1887 14.0988 76.4733 16.9165 78.1307 20.1514C79.2679 22.3371 80.0789 24.6997 80.5345 27.1537C80.7215 28.0388 80.843 28.9382 80.8978 29.8437C80.9792 30.5021 81.0077 31.1667 80.9828 31.8302C81.0091 32.384 80.978 32.9392 80.8901 33.4856Z" fill="#E0E0E0"/>
<path d="M76.1209 17.5442C76.175 17.627 75.7421 18.0243 74.9151 18.6864L73.3692 19.8618C73.0678 20.0853 72.7509 20.3418 72.3953 20.5736L71.2205 21.2357C66.9598 23.8356 62.1172 25.1406 57.2149 25.0101L55.097 24.9107L53.0565 24.5714C52.7241 24.5052 52.3917 24.4638 52.0671 24.3893L51.1164 24.1161C50.498 23.934 49.872 23.7768 49.2845 23.5781C47.2122 22.8253 45.2199 21.8404 43.3407 20.6398C40.1484 18.5706 38.5948 16.6917 38.703 16.5758C38.8113 16.4599 40.5658 17.9912 43.7812 19.779C45.6582 20.815 47.616 21.6735 49.6324 22.3449C50.2043 22.5187 50.7995 22.6511 51.4024 22.8167L52.3144 23.065L53.2574 23.2139L55.2052 23.5202L57.2303 23.6112C61.9357 23.7007 66.5909 22.5645 70.7953 20.3005L71.9779 19.7542C72.3412 19.5472 72.6658 19.332 72.9827 19.15L74.6291 18.2312C75.5412 17.718 76.0668 17.4697 76.1209 17.5442Z" fill="#E0E0E0"/>
<path d="M37.9996 48.5663C37.9455 48.4918 38.3784 48.0945 39.2054 47.4324L40.7513 46.2488C41.0605 46.0253 41.3774 45.777 41.7329 45.5369L42.9001 44.8831C47.1625 42.2806 52.0083 40.9755 56.9134 41.1088L59.0312 41.2081L61.0718 41.5474C61.4041 41.6054 61.7365 41.655 62.0611 41.7213L63.0041 41.9944C63.6302 42.1848 64.2485 42.342 64.836 42.5407C66.9091 43.2877 68.9018 44.2699 70.7799 45.4707C73.9798 47.54 75.5334 49.4188 75.4175 49.543C75.3015 49.6672 73.5547 48.1276 70.3393 46.3398C68.4639 45.3002 66.5058 44.4415 64.4881 43.774C63.9162 43.6001 63.321 43.4594 62.7181 43.2939L61.8061 43.0539L60.8554 42.9049L58.9153 42.5986L56.8515 42.4993C52.1514 42.4129 47.5019 43.549 43.302 45.8101L42.1194 46.3646C41.7561 46.5633 41.4237 46.7785 41.1146 46.9689L39.4837 47.929C38.5793 48.4008 38.0537 48.6491 37.9996 48.5663Z" fill="#E0E0E0"/>
<path d="M80.8747 34.0816C80.8747 34.4706 70.1928 34.5037 57.0374 34.1644C43.882 33.825 33.2155 33.2291 33.231 32.8401C33.2464 32.451 43.9052 32.4179 57.0683 32.7573C70.2314 33.0966 80.8825 33.6926 80.8747 34.0816Z" fill="#E0E0E0"/>
<path d="M55.9552 58.3579C55.5919 58.3579 55.5533 46.9192 55.8779 32.84C56.2025 18.7609 56.7436 7.33865 57.1069 7.34693C57.4701 7.35521 57.5011 18.7857 57.1842 32.8731C56.8672 46.9605 56.3107 58.3662 55.9552 58.3579Z" fill="#E0E0E0"/>
<path d="M55.9549 58.3165C55.8621 58.4655 53.2341 56.5618 50.2042 52.2412C48.4369 49.7058 47.0063 46.9203 45.9531 43.9643C44.6668 40.3253 44.0398 36.4572 44.1058 32.5669C44.1932 28.6586 45.0106 24.8086 46.5096 21.244C47.717 18.3624 49.2765 15.6654 51.1472 13.2236C54.3549 9.08509 57.0061 7.23105 57.0911 7.38003C57.1761 7.52902 54.8264 9.62309 51.8815 13.8361C50.1635 16.2821 48.7283 18.9418 47.6072 21.7571C46.2435 25.1792 45.4986 28.8474 45.412 32.5669C45.3528 36.2972 45.9182 40.0088 47.0816 43.5256C48.05 46.4039 49.3481 49.1424 50.9463 51.6784C53.7597 56.0238 56.0785 58.1593 55.9549 58.3165Z" fill="#E0E0E0"/>
<path d="M57.6248 7.35526C57.7175 7.20627 60.3455 9.11825 63.3754 13.4306C65.1426 15.9675 66.5757 18.7525 67.6343 21.7075C68.9173 25.3616 69.5416 29.2431 69.4739 33.1463C69.3854 37.0518 68.5681 40.8989 67.0701 44.4609C65.864 47.3458 64.3044 50.0458 62.4324 52.4896C59.2248 56.6281 56.5736 58.4821 56.4886 58.3332C56.4035 58.1842 58.7533 56.0818 61.6982 51.8771C63.4176 49.4277 64.8553 46.7654 65.9802 43.9478C67.3466 40.5175 68.094 36.8413 68.1831 33.1132C68.2423 29.3828 67.6769 25.6713 66.5135 22.1545C65.5435 19.2769 64.2455 16.5386 62.6489 14.0017C59.874 9.65626 57.5088 7.51252 57.6248 7.35526Z" fill="#E0E0E0"/>
<path d="M206.221 34.2223C206.695 33.9928 207.103 33.6329 207.404 33.1794C207.751 32.6206 207.912 31.9527 207.86 31.284C207.814 30.8722 207.718 30.4687 207.574 30.0838L207.11 28.685L201.514 11.8745C200.934 10.1115 200.324 8.25742 199.682 6.32888C199.365 5.36048 199.041 4.37552 198.716 3.374C198.575 2.87284 198.394 2.38549 198.175 1.91726C197.925 1.48566 197.566 1.1385 197.139 0.91574C196.705 0.689854 196.216 0.614625 195.74 0.70054C195.244 0.844389 194.757 1.01849 194.279 1.22199L191.242 2.42215L184.888 4.90524L156.56 16.0626C155.994 16.3025 155.53 16.7577 155.257 17.3412C154.985 17.9246 154.923 18.5952 155.084 19.2244C155.517 20.5487 155.942 21.873 156.367 23.1808C157.222 25.8129 158.067 28.4063 158.902 30.9612L163.687 45.6611C163.88 46.2487 164.073 46.8281 164.259 47.4075C164.409 47.9521 164.711 48.4344 165.124 48.7898C165.531 49.1319 166.03 49.3236 166.547 49.336C167.082 49.3045 167.606 49.164 168.092 48.9222L174.09 46.5798L184.865 42.3917L200.478 36.366L204.73 34.7106L205.843 34.3051C205.968 34.2517 206.097 34.2102 206.229 34.1809C206.109 34.2479 205.985 34.306 205.858 34.3547L204.768 34.81L200.548 36.515L184.989 42.7062L174.23 46.9523L168.239 49.3112L167.466 49.6175C167.18 49.7205 166.879 49.7709 166.577 49.7664C165.963 49.7504 165.37 49.5242 164.885 49.1208C164.404 48.71 164.051 48.1531 163.872 47.5234C163.679 46.944 163.493 46.3646 163.3 45.7769L158.485 31.0853C157.65 28.536 156.802 25.9453 155.942 23.3132L154.636 19.3237C154.442 18.5683 154.517 17.763 154.845 17.063C155.173 16.363 155.732 15.8179 156.413 15.5329L184.726 4.45829L191.087 1.97519L194.14 0.783308C194.642 0.562901 195.159 0.383065 195.686 0.245307C196.244 0.150234 196.816 0.239748 197.325 0.501891C197.821 0.762958 198.237 1.17085 198.523 1.67722C198.757 2.17052 198.949 2.68587 199.095 3.21674C199.42 4.21825 199.736 5.20321 200.053 6.17162C200.682 8.10843 201.282 9.96523 201.854 11.742L207.265 28.5443C207.427 29.0409 207.574 29.5044 207.713 29.9514C207.869 30.3588 207.971 30.788 208.015 31.226C208.067 31.9266 207.887 32.6246 207.504 33.1959C207.271 33.5444 206.964 33.8282 206.608 34.0236C206.489 34.1095 206.358 34.1764 206.221 34.2223Z" fill="#E0E0E0"/>
<path d="M182.029 21.5337L188.444 22.8911L184.231 28.3622L180.019 33.825L177.816 27.0048L175.613 20.1845L182.029 21.5337Z" fill="#E0E0E0"/>
<path d="M299.391 83.8841C298.31 83.2074 297.113 82.7721 295.871 82.6042C294.629 82.4364 293.368 82.5395 292.164 82.9074C289.76 83.661 287.549 84.9946 285.702 86.8058C282.046 90.1746 279.58 95.5132 278.065 100.421C283.252 101.87 288.887 98.9813 291.615 97.3259C295.974 94.7021 302.367 87.1369 299.391 83.8841Z" fill="#FF725E"/>
<path d="M268.876 101.017C270.164 100.433 271.286 99.494 272.127 98.2965C272.968 97.099 273.5 95.685 273.668 94.1972C273.806 92.7089 273.668 91.206 273.261 89.7753C272.853 88.3447 272.185 87.0147 271.295 85.8623C270.522 84.7863 269.393 83.7848 268.11 83.7682C267.506 83.8034 266.922 84.0096 266.417 84.3659C265.911 84.7222 265.504 85.2157 265.235 85.7961C264.721 86.9709 264.503 88.2691 264.601 89.5621C264.756 93.982 265.668 98.2281 268.876 101.017Z" fill="#FF725E"/>
<g opacity="0.4">
<path opacity="0.4" d="M268.876 101.017C270.164 100.433 271.286 99.494 272.127 98.2965C272.968 97.099 273.5 95.685 273.668 94.1972C273.806 92.7089 273.668 91.206 273.261 89.7753C272.853 88.3447 272.185 87.0147 271.295 85.8623C270.522 84.7863 269.393 83.7848 268.11 83.7682C267.506 83.8034 266.922 84.0096 266.417 84.3659C265.911 84.7222 265.504 85.2157 265.235 85.7961C264.721 86.9709 264.503 88.2691 264.601 89.5621C264.756 93.982 265.668 98.2281 268.876 101.017Z" fill="white"/>
</g>
<path d="M259.646 114.509C259.913 114.295 260.159 114.054 260.381 113.789L262.305 111.753C264.499 109.561 266.349 107.007 267.786 104.187C269.19 101.319 269.854 98.1022 269.71 94.8676C269.652 93.8953 269.486 92.9338 269.215 92.0037C269.146 91.7498 269.06 91.5009 268.96 91.2588C268.899 91.0878 268.86 91.005 268.844 91.0105C269.174 92.2757 269.381 93.5737 269.463 94.8841C269.523 98.0493 268.84 101.18 267.476 103.989C266.048 106.771 264.245 109.315 262.128 111.537C261.355 112.423 260.705 113.143 260.28 113.656C260.046 113.92 259.834 114.205 259.646 114.509Z" fill="#263238"/>
<path d="M294.05 89.1565C293.915 89.2159 293.786 89.2879 293.663 89.3717L292.605 90.0504C291.685 90.6464 290.363 91.532 288.74 92.6328C285.494 94.8428 281.049 97.9632 276.218 101.522C271.387 105.081 267.09 108.417 263.998 110.875C262.452 112.109 261.208 113.11 260.358 113.822L259.391 114.65C259.271 114.739 259.16 114.842 259.059 114.956C259.191 114.888 259.316 114.805 259.43 114.708L260.443 113.946L264.137 111.099C267.229 108.698 271.588 105.404 276.419 101.845C281.25 98.286 285.695 95.1325 288.879 92.8646L292.682 90.1828L293.71 89.4462C293.83 89.3586 293.943 89.2618 294.05 89.1565Z" fill="#263238"/>
<path d="M270.406 108.963C273.082 107.64 276.015 107.019 278.96 107.152C281.905 107.284 284.778 108.166 287.341 109.725C288.632 110.553 289.977 111.835 289.768 113.425C289.56 115.014 287.936 115.908 286.476 116.239C283.414 116.938 280.228 116.65 277.319 115.413C274.409 114.176 271.907 112.044 270.128 109.286" fill="#FF725E"/>
<path d="M283.213 111.893C282.973 111.687 282.714 111.507 282.44 111.355C282.177 111.198 281.861 110.999 281.466 110.809C281.033 110.578 280.59 110.371 280.137 110.188C279.591 109.956 279.033 109.754 278.467 109.584C277.817 109.374 277.156 109.203 276.489 109.071C274.958 108.783 273.403 108.68 271.851 108.765C270.299 108.874 268.764 109.174 267.275 109.659C266.63 109.878 265.998 110.138 265.382 110.437C264.852 110.681 264.336 110.957 263.836 111.264C263.356 111.521 262.962 111.844 262.599 112.092C262.29 112.301 261.993 112.53 261.71 112.779C261.456 112.975 261.218 113.193 260.999 113.433C261.045 113.499 262.073 112.605 263.952 111.504C264.466 111.199 264.995 110.923 265.536 110.677C266.108 110.403 266.742 110.188 267.414 109.948C270.348 109.004 273.448 108.809 276.465 109.377C277.123 109.489 277.774 109.643 278.413 109.841C278.978 109.995 279.535 110.18 280.083 110.395C282.031 111.198 283.175 111.96 283.213 111.893Z" fill="#263238"/>
<path d="M66.8223 204.149C80.2405 192.263 81.9718 172.224 80.0627 154.487C79.7458 151.524 79.8153 148.378 78.3004 145.887C76.7854 143.396 73.5778 141.889 71.1894 143.354C69.2107 144.571 68.5073 147.211 67.5179 149.429C66.1949 152.389 64.1185 154.888 61.5277 156.639C59.8427 157.764 57.663 158.559 55.8852 157.682C53.3887 156.473 52.8399 152.964 52.6312 150.017C52.2499 144.499 51.866 139 51.4795 133.521C51.2708 130.566 51.0544 127.553 49.9877 124.83C48.9211 122.107 46.8264 119.674 44.1443 119.111C41.4623 118.548 38.3473 120.452 38.015 123.39C38.0051 124.619 38.0722 125.846 38.2159 127.065C38.2159 128.298 37.7985 129.697 36.7396 130.136C35.6807 130.575 34.5058 129.838 33.6479 129.043C30.5561 126.312 28.361 122.645 26.2663 118.987C24.1717 115.328 22.1311 111.579 19.3099 108.549C16.4887 105.52 12.7245 103.269 8.75935 103.368C4.79418 103.467 0.790377 106.447 0.110193 110.677C-0.56999 114.906 2.01162 118.954 4.74781 122.099C8.78385 126.772 13.428 130.797 18.537 134.051C19.5175 134.524 20.3303 135.322 20.8558 136.327C21.6287 138.239 20.0133 140.341 18.251 141.152C16.2491 142.063 14.0076 142.022 11.882 142.485C9.75643 142.949 7.50719 144.14 6.85792 146.4C5.95359 149.512 8.55065 152.467 11.024 154.338C15.9784 158.08 21.4981 160.88 27.3407 162.615C29.4276 163.235 31.6073 163.74 33.3619 165.098C35.1165 166.455 36.299 169.046 35.4643 171.214C34.6295 173.383 32.1175 174.31 29.9532 174.103C27.789 173.896 25.8103 172.795 23.7234 172.15C19.8587 170.95 14.9583 171.653 12.7941 175.37C11.3796 177.811 11.4801 181.031 12.4926 183.704C13.6223 186.328 15.2307 188.684 17.223 190.632C23.805 197.825 32.0523 203.018 41.1222 205.68C50.1501 208.163 58.3509 208.353 66.8223 204.173" fill="#FF725E"/>
<g opacity="0.2">
<path opacity="0.2" d="M66.8223 204.149C80.2405 192.263 81.9718 172.224 80.0627 154.487C79.7458 151.524 79.8153 148.378 78.3004 145.887C76.7854 143.396 73.5778 141.889 71.1894 143.354C69.2107 144.571 68.5073 147.211 67.5179 149.429C66.1949 152.389 64.1185 154.888 61.5277 156.639C59.8427 157.764 57.663 158.559 55.8852 157.682C53.3887 156.473 52.8399 152.964 52.6312 150.017C52.2499 144.499 51.866 139 51.4795 133.521C51.2708 130.566 51.0544 127.553 49.9877 124.83C48.9211 122.107 46.8264 119.674 44.1443 119.111C41.4623 118.548 38.3473 120.452 38.015 123.39C38.0051 124.619 38.0722 125.846 38.2159 127.065C38.2159 128.298 37.7985 129.697 36.7396 130.136C35.6807 130.575 34.5058 129.838 33.6479 129.043C30.5561 126.312 28.361 122.645 26.2663 118.987C24.1717 115.328 22.1311 111.579 19.3099 108.549C16.4887 105.52 12.7245 103.269 8.75935 103.368C4.79418 103.467 0.790377 106.447 0.110193 110.677C-0.56999 114.906 2.01162 118.954 4.74781 122.099C8.78385 126.772 13.428 130.797 18.537 134.051C19.5175 134.524 20.3303 135.322 20.8558 136.327C21.6287 138.239 20.0133 140.341 18.251 141.152C16.2491 142.063 14.0076 142.022 11.882 142.485C9.75643 142.949 7.50719 144.14 6.85792 146.4C5.95359 149.512 8.55065 152.467 11.024 154.338C15.9784 158.08 21.4981 160.88 27.3407 162.615C29.4276 163.235 31.6073 163.74 33.3619 165.098C35.1165 166.455 36.299 169.046 35.4643 171.214C34.6295 173.383 32.1175 174.31 29.9532 174.103C27.789 173.896 25.8103 172.795 23.7234 172.15C19.8587 170.95 14.9583 171.653 12.7941 175.37C11.3796 177.811 11.4801 181.031 12.4926 183.704C13.6223 186.328 15.2307 188.684 17.223 190.632C23.805 197.825 32.0523 203.018 41.1222 205.68C50.1501 208.163 58.3509 208.353 66.8223 204.173" fill="white"/>
</g>
<path d="M68.0358 217.301C66.6395 209.131 64.5145 201.124 61.69 193.388C58.2025 183.964 54.2128 174.761 49.7404 165.826L46.2622 158.766C45.1105 156.448 43.9434 154.156 42.7299 151.987C40.3398 147.82 37.7335 143.799 34.9232 139.944C32.2721 136.236 29.6209 132.826 27.1243 129.664C24.6277 126.502 22.2394 123.597 19.9592 121.048C16.3758 117.012 12.4989 113.286 8.36515 109.907C6.90431 108.707 5.7449 107.821 4.95651 107.233L4.04444 106.563C3.9477 106.48 3.84116 106.41 3.72754 106.356C3.81563 106.45 3.91133 106.536 4.01352 106.613L4.89467 107.316C5.66761 107.937 6.80382 108.856 8.24149 110.072C12.3153 113.509 16.1419 117.269 19.6887 121.321C21.9456 123.878 24.3263 126.784 26.7919 129.954C29.2576 133.124 31.9011 136.575 34.5213 140.25C37.3003 144.103 39.8806 148.115 42.2507 152.268C43.4874 154.429 44.5695 156.705 45.7598 159.022L49.238 166.083C53.7003 175.014 57.6949 184.205 61.2031 193.612C64.0496 201.296 66.2157 209.249 67.6725 217.367" fill="#263238"/>
<path d="M42.5828 151.937C42.6899 151.519 42.7496 151.088 42.7606 150.654C42.8456 149.827 42.9229 148.627 43.0079 147.137C43.1702 144.165 43.2707 140.06 43.3635 135.549C43.4562 131.038 43.6185 126.916 43.8195 123.961C43.92 122.48 44.0127 121.279 44.09 120.46C44.1557 120.031 44.1738 119.595 44.1441 119.161C44.0202 119.572 43.9373 119.997 43.8968 120.427C43.7577 121.255 43.6108 122.447 43.4639 123.92C43.1625 126.883 42.9538 130.997 42.861 135.508C42.7683 140.019 42.7065 144.033 42.6446 147.095C42.6446 148.494 42.5828 149.67 42.5596 150.613C42.5266 151.054 42.5344 151.498 42.5828 151.937Z" fill="#263238"/>
<path d="M6.61035 147.923C7.08142 147.993 7.55787 148.013 8.03255 147.981C8.95235 147.981 10.2741 147.981 11.8972 148.056C15.1668 148.147 19.6807 148.445 24.6507 149.007C29.6206 149.57 34.096 150.299 37.3191 150.928C38.9268 151.226 40.2331 151.507 41.1297 151.689C41.5913 151.814 42.0618 151.897 42.5364 151.937C42.0982 151.738 41.6425 151.585 41.176 151.482C40.2872 151.234 38.9886 150.895 37.3809 150.539C34.1655 149.819 29.6516 149.032 24.6971 148.461C20.4465 147.951 16.1743 147.674 11.8972 147.633C10.2586 147.633 8.92916 147.675 8.03255 147.741C7.55429 147.755 7.07824 147.816 6.61035 147.923Z" fill="#263238"/>
<path d="M61.2031 192.726C61.2918 192.577 61.362 192.415 61.4118 192.246L61.9142 190.823C62.3471 189.581 62.919 187.768 63.6147 185.525C64.9905 181.031 66.7064 174.765 68.5228 167.813C70.3392 160.86 72.0088 154.569 73.2918 150.075C73.9256 147.873 74.4512 146.069 74.8377 144.728C75 144.149 75.1392 143.669 75.2474 143.271C75.3081 143.104 75.3471 142.929 75.3633 142.75C75.3633 142.75 75.2705 142.907 75.1546 143.238C75.0387 143.569 74.8532 144.066 74.6522 144.662C74.2194 145.895 73.6397 147.708 72.9517 149.951C71.5759 154.445 69.86 160.711 68.0359 167.664C66.2118 174.616 64.5577 180.907 63.2669 185.401L61.721 190.748C61.551 191.336 61.4196 191.816 61.3036 192.205C61.2505 192.374 61.2167 192.549 61.2031 192.726Z" fill="#263238"/>
<path d="M12.9175 180.576C13.0712 180.657 13.2353 180.712 13.4044 180.741L14.8034 181.114L19.9744 182.43C24.3415 183.531 30.3549 185.136 36.979 186.916C43.603 188.695 49.6551 190.227 54.0454 191.261C56.2405 191.766 58.0183 192.155 59.255 192.404L60.6772 192.668C60.8415 192.712 61.0105 192.731 61.1796 192.726C61.0273 192.649 60.8662 192.593 60.7004 192.561L59.2936 192.188L54.1227 190.881C49.7556 189.771 43.7422 188.166 37.1181 186.386C30.494 184.607 24.442 183.075 20.0594 182.049C17.8643 181.544 16.0788 181.147 14.8498 180.907L13.4199 180.634C13.2548 180.595 13.0864 180.576 12.9175 180.576Z" fill="#263238"/>
<path d="M81.9717 48.9719C81.9717 48.9719 85.133 136.17 85.7282 190.748C86.2924 242.959 69.9912 300.973 72.31 319.24L268.303 330C268.303 330 259.19 195.085 262.669 152.459C265.992 111.819 265.969 44.4113 265.969 44.4113L81.9717 48.9719Z" fill="#E0E0E0"/>
<path d="M74.2346 46.1411C74.2346 46.1411 77.4732 133.339 78.0993 187.917C78.679 240.129 69.9758 303.406 72.3641 321.673L262.22 314.621C262.22 314.621 255.303 192.288 258.858 149.678C262.244 109.038 262.205 42.3751 262.205 42.3751L74.2346 46.1411Z" fill="#EBEBEB"/>
<path d="M71.7615 46.1494C71.7615 46.1494 66.9847 142.162 67.6031 196.741C68.1983 248.944 69.9219 303.406 72.3566 321.673L257.042 323.436C257.042 323.436 249.923 201.103 253.571 158.493C257.042 117.82 257.042 45.5287 257.042 45.5287L71.7615 46.1494Z" fill="#FAFAFA"/>
<path d="M257.451 323.85L72.024 322.087L71.9699 321.731C69.2878 301.792 67.7342 241.941 67.2164 196.749C66.598 142.783 71.3284 47.1013 71.3748 46.108V45.719L257.413 45.09V45.5038C257.413 46.2239 257.413 118.341 253.942 158.509C250.333 200.598 257.343 322.162 257.413 323.387L257.451 323.85ZM72.7197 321.26L256.678 323.014C256.215 314.87 249.722 199.323 253.239 158.451C256.547 119.889 256.694 51.9102 256.702 45.9425L72.1709 46.5633C71.8385 53.3256 67.4405 144.546 68.0357 196.732C68.5072 241.643 70.0453 301.022 72.6888 321.26H72.7197Z" fill="#263238"/>
<path d="M160.232 103.095H84.2212V181.85H160.232V103.095Z" fill="#FF725E"/>
<g opacity="0.3">
<path opacity="0.3" d="M90.1108 175.105L111.142 134.581L128.34 160.488L138.79 146.731L154.342 175.105H90.1108Z" fill="black"/>
</g>
<g opacity="0.3">
<path opacity="0.3" d="M135.691 126.701C135.691 127.86 135.37 128.993 134.769 129.957C134.167 130.92 133.313 131.671 132.313 132.115C131.313 132.559 130.212 132.675 129.151 132.448C128.089 132.222 127.114 131.664 126.349 130.845C125.584 130.025 125.062 128.981 124.851 127.844C124.64 126.707 124.748 125.529 125.163 124.458C125.577 123.388 126.278 122.472 127.178 121.828C128.078 121.185 129.136 120.841 130.218 120.841C131.67 120.841 133.062 121.458 134.088 122.557C135.114 123.656 135.691 125.147 135.691 126.701Z" fill="black"/>
</g>
<g opacity="0.3">
<path opacity="0.3" d="M154.342 175.328C154.333 175.221 154.333 175.113 154.342 175.005C154.342 174.765 154.342 174.467 154.342 174.087C154.342 173.259 154.342 172.067 154.342 170.544C154.342 167.415 154.295 162.904 154.256 157.169C154.218 145.664 154.164 129.283 154.102 109.617L154.411 109.948L90.1878 110.006L90.5434 109.626V127.305C90.5434 133.099 90.5434 138.761 90.5434 144.273C90.5434 155.306 90.5434 165.735 90.5047 175.328L90.1878 174.989L136.626 175.163L149.727 175.245L153.198 175.287H154.102H154.419H154.133H153.267L149.858 175.328L136.827 175.419L90.1878 175.593H89.8786V175.254C89.8786 165.661 89.8786 155.232 89.8786 144.198C89.8786 138.686 89.8786 133.016 89.8786 127.231V109.626C89.554 109.965 90.3115 109.145 90.2419 109.228L154.465 109.286H154.774V109.617C154.705 129.374 154.651 145.821 154.612 157.375C154.612 163.078 154.55 167.573 154.535 170.677C154.535 172.175 154.535 173.333 154.496 174.161C154.496 174.525 154.496 174.815 154.496 175.039C154.453 175.14 154.401 175.237 154.342 175.328Z" fill="black"/>
</g>
<path d="M232.153 253.901H179.895V308.041H232.153V253.901Z" fill="#FF725E"/>
<g opacity="0.4">
<path opacity="0.4" d="M183.945 303.406L198.399 275.546L210.225 293.35L217.406 283.897L228.095 303.406H183.945Z" fill="black"/>
</g>
<g opacity="0.4">
<path opacity="0.4" d="M215.257 270.116C215.258 270.914 215.039 271.694 214.626 272.359C214.213 273.023 213.625 273.541 212.937 273.847C212.249 274.153 211.491 274.233 210.76 274.078C210.029 273.923 209.358 273.539 208.831 272.975C208.304 272.41 207.945 271.691 207.8 270.909C207.655 270.126 207.731 269.315 208.017 268.578C208.302 267.841 208.786 267.212 209.406 266.769C210.026 266.327 210.755 266.092 211.5 266.093C212.497 266.093 213.452 266.517 214.157 267.272C214.861 268.026 215.257 269.049 215.257 270.116Z" fill="black"/>
</g>
<g opacity="0.4">
<path opacity="0.4" d="M228.095 303.555C228.095 303.555 228.095 303.481 228.095 303.332C228.095 303.183 228.095 302.967 228.095 302.703C228.095 302.151 228.095 301.34 228.095 300.269C228.095 298.117 228.095 295.013 228.041 291.073C228.041 283.161 227.979 271.904 227.933 258.379L228.141 258.611H183.991L184.239 258.346V270.505C184.239 274.478 184.239 278.376 184.239 282.167C184.239 289.749 184.239 296.917 184.239 303.514L184.022 303.282L215.945 303.398L224.949 303.464H227.338H227.956H228.172C228.108 303.473 228.043 303.473 227.979 303.464H227.384H225.065L216.107 303.522L184.046 303.638H183.829V303.406C183.829 296.784 183.829 289.641 183.829 282.06C183.829 278.269 183.829 274.37 183.829 270.397V258.388L184.076 258.114L228.226 258.156H228.443V258.379C228.397 271.962 228.358 283.276 228.335 291.214C228.335 295.137 228.288 298.225 228.281 300.36C228.281 301.386 228.281 302.189 228.281 302.752C228.281 303.009 228.281 303.207 228.281 303.356C228.281 303.505 228.103 303.563 228.095 303.555Z" fill="black"/>
</g>
<path d="M117.017 68.1V81.1776H115.95L108.105 70.5665V81.1776H106.814V68.1H107.865L115.734 78.7111V68.1H117.017Z" fill="#263238"/>
<path d="M129.631 79.9774V81.1776H121.005V68.1H129.376V69.2919H122.296V73.9518H128.611V75.1354H122.296V79.9857L129.631 79.9774Z" fill="#263238"/>
<path d="M149.256 68.1L145.136 81.1776H143.776L140.205 70.0202L136.611 81.1776H135.266L131.146 68.1H132.475L136 79.3484L139.641 68.1H140.846L144.441 79.3981L148.058 68.1H149.256Z" fill="#263238"/>
<path d="M150.446 79.5884L150.949 78.5206C152.061 79.5655 153.496 80.1316 154.976 80.1098C157.295 80.1098 158.261 79.0835 158.261 77.7922C158.261 74.2083 150.74 76.41 150.74 71.5762C150.74 69.6477 152.131 67.984 155.238 67.984C156.579 67.9667 157.896 68.3695 159.026 69.1428L158.593 70.2519C157.594 69.5551 156.43 69.1789 155.238 69.1676C153.005 69.1676 152.015 70.2271 152.015 71.5349C152.015 75.1271 159.528 72.9585 159.528 77.7178C159.528 79.6463 158.098 81.2851 154.976 81.2851C153.32 81.3489 151.703 80.7431 150.446 79.5884Z" fill="#263238"/>
<path d="M171.903 72.5861C171.903 75.3672 170.017 77.0474 166.909 77.0474H163.632V81.1859H162.341V68.1082H166.909C170.017 68.1 171.903 69.8133 171.903 72.5861ZM170.612 72.5861C170.612 70.492 169.321 69.2753 166.878 69.2753H163.632V75.8141H166.878C169.321 75.8307 170.612 74.6388 170.612 72.5861Z" fill="#263238"/>
<path d="M181.735 77.6847H174.933L173.472 81.1776H172.127L177.708 68.1H178.975L184.556 81.1776H183.195L181.735 77.6847ZM181.271 76.559L178.334 69.5402L175.404 76.559H181.271Z" fill="#263238"/>
<path d="M196.15 72.5861C196.15 75.3672 194.264 77.0474 191.156 77.0474H187.879V81.1859H186.588V68.1082H191.156C194.264 68.1 196.15 69.8133 196.15 72.5861ZM194.859 72.5861C194.859 70.492 193.568 69.2753 191.125 69.2753H187.879V75.8141H191.125C193.568 75.8307 194.859 74.6388 194.859 72.5861Z" fill="#263238"/>
<path d="M207.574 79.9774V81.1776H198.94V68.1H207.311V69.2919H200.231V73.9518H206.546V75.1354H200.231V79.9857L207.574 79.9774Z" fill="#263238"/>
<path d="M218.951 81.1776L216.161 76.9729C215.844 76.9729 215.527 77.0308 215.179 77.0308H211.902V81.1693H210.611V68.0917H215.179C218.271 68.0917 220.173 69.7471 220.173 72.5778C220.222 73.5058 219.972 74.4238 219.463 75.1774C218.955 75.9311 218.22 76.4745 217.382 76.7163L220.366 81.2024L218.951 81.1776ZM218.882 72.5861C218.882 70.492 217.591 69.2753 215.148 69.2753H211.902V75.8389H215.148C217.622 75.8555 218.882 74.6388 218.882 72.5861Z" fill="#263238"/>
<path d="M245.873 87.4433H245.448H244.211L239.442 87.5509L221.896 87.8654L164.019 88.7345L106.126 89.4794L88.5802 89.6532H83.8112H82.5745H82.1494H82.5745H83.8112L88.5802 89.5456L106.118 89.2311L164.011 88.362L221.896 87.6171L239.434 87.4433H244.211H245.448C245.726 87.4267 245.873 87.4433 245.873 87.4433Z" fill="#263238"/>
<path d="M242.148 58.9788C242.148 58.9788 242.008 58.9788 241.73 58.9788H240.486L235.717 59.0864L218.171 59.4009L160.294 60.2286L102.401 60.9735L84.8629 61.1473H80.0939H78.8494C78.5712 61.1473 78.4243 61.1473 78.4243 61.1473H78.8494H80.0861L84.8551 61.0397L102.401 60.7252L160.286 59.8975L218.171 59.1526L235.717 58.9788H240.486H241.722C242.008 58.9622 242.148 58.9788 242.148 58.9788Z" fill="#263238"/>
<path d="M238.546 110.263C238.546 110.379 224.455 110.478 207.079 110.478C189.704 110.478 175.605 110.379 175.605 110.263C175.605 110.147 189.688 110.048 207.079 110.048C224.47 110.048 238.546 110.147 238.546 110.263Z" fill="#263238"/>
<path d="M238.546 121.056C238.546 121.172 224.455 121.271 207.079 121.271C189.704 121.271 175.605 121.172 175.605 121.056C175.605 120.94 189.688 120.841 207.079 120.841C224.47 120.841 238.546 120.932 238.546 121.056Z" fill="#263238"/>
<path d="M238.546 131.891C238.546 132.006 224.455 132.106 207.079 132.106C189.704 132.106 175.605 132.006 175.605 131.891C175.605 131.775 189.688 131.675 207.079 131.675C224.47 131.675 238.546 131.725 238.546 131.891Z" fill="#263238"/>
<path d="M238.546 142.651C238.546 142.775 224.455 142.866 207.079 142.866C189.704 142.866 175.605 142.775 175.605 142.651C175.605 142.526 189.688 142.435 207.079 142.435C224.47 142.435 238.546 142.518 238.546 142.651Z" fill="#263238"/>
<path d="M238.546 153.411C238.546 153.535 224.455 153.626 207.079 153.626C189.704 153.626 175.605 153.535 175.605 153.411C175.605 153.287 189.688 153.196 207.079 153.196C224.47 153.196 238.546 153.311 238.546 153.411Z" fill="#263238"/>
<path d="M156.197 245.037C156.197 245.153 142.106 245.252 124.731 245.252C107.355 245.252 93.2568 245.153 93.2568 245.037C93.2568 244.921 107.34 244.822 124.731 244.822C142.122 244.822 156.197 244.921 156.197 245.037Z" fill="#263238"/>
<path d="M156.197 258.114C156.197 258.23 142.106 258.33 124.731 258.33C107.355 258.33 93.2568 258.23 93.2568 258.114C93.2568 257.999 107.34 257.899 124.731 257.899C142.122 257.899 156.197 257.99 156.197 258.114Z" fill="#263238"/>
<path d="M156.197 271.184C156.197 271.308 142.106 271.399 124.731 271.399C107.355 271.399 93.2568 271.308 93.2568 271.184C93.2568 271.06 107.34 270.969 124.731 270.969C142.122 270.969 156.197 271.068 156.197 271.184Z" fill="#263238"/>
<path d="M156.197 284.261C156.197 284.377 142.106 284.477 124.731 284.477C107.355 284.477 93.2568 284.377 93.2568 284.261C93.2568 284.146 107.34 284.046 124.731 284.046C142.122 284.046 156.197 284.137 156.197 284.261Z" fill="#263238"/>
<path d="M130.613 298.324C130.613 298.44 122.25 298.539 111.931 298.539C101.612 298.539 93.2568 298.44 93.2568 298.324C93.2568 298.208 101.612 298.109 111.931 298.109C122.25 298.109 130.613 298.2 130.613 298.324Z" fill="#263238"/>
<path d="M209.429 164.22C208.989 164.288 208.544 164.316 208.1 164.303L204.475 164.369C201.383 164.369 197.186 164.436 192.517 164.436C187.849 164.436 183.613 164.436 180.552 164.369L176.927 164.303C176.485 164.316 176.043 164.288 175.605 164.22C176.043 164.153 176.485 164.125 176.927 164.138L180.552 164.071C183.644 164.071 187.849 164.005 192.517 164.005C197.186 164.005 201.414 164.005 204.475 164.071L208.1 164.138C208.544 164.125 208.989 164.153 209.429 164.22Z" fill="#263238"/>
<path d="M241.583 232.042C241.583 232.158 207.844 232.257 166.237 232.257C124.63 232.257 90.8604 232.116 90.8604 232.042C90.8604 231.967 124.591 231.827 166.206 231.827C207.821 231.827 241.583 231.885 241.583 232.042Z" fill="#263238"/>
<path d="M241.583 217.756C241.583 217.872 207.845 217.971 166.237 217.971C124.63 217.971 90.8916 217.872 90.8916 217.756C90.8916 217.64 124.623 217.541 166.237 217.541C207.852 217.541 241.583 217.632 241.583 217.756Z" fill="#263238"/>
<path d="M241.583 205.696C241.583 205.812 207.845 205.912 166.237 205.912C124.63 205.912 90.8916 205.812 90.8916 205.696C90.8916 205.581 124.623 205.481 166.237 205.481C207.852 205.481 241.583 205.556 241.583 205.696Z" fill="#263238"/>
<path d="M161.291 196.319C161.291 196.434 144.92 196.534 124.731 196.534C104.542 196.534 88.1631 196.434 88.1631 196.319C88.1631 196.203 104.534 196.103 124.731 196.103C144.928 196.103 161.291 196.194 161.291 196.319Z" fill="#FF725E"/>
<path d="M142.415 197.535C148.769 195.88 152.711 187.471 150.145 180.981C148.777 177.48 145.832 174.451 146.002 170.652C146.118 168.069 147.71 165.81 148.073 163.252C148.761 158.46 145.175 154.329 143.528 149.819C141.82 145.167 142.199 139.985 142.222 134.978C142.245 129.97 141.735 124.599 138.713 120.783L134.964 178.953L142.415 197.535Z" fill="#263238"/>
<path d="M100.058 108.409C94.5475 112.026 90.7137 118.085 88.4645 124.565C86.2152 131.046 85.3263 137.991 84.6539 144.877C82.8769 163.073 82.2804 181.378 82.8684 199.662C103.738 202.485 124.754 205.316 145.739 203.801C142.098 178.142 139.795 152.484 142.709 126.759" fill="#263238"/>
<path d="M146.813 194.969C146.813 194.969 147.068 195.052 147.586 195.061C148.307 195.055 149.007 194.806 149.588 194.349C150.519 193.648 151.176 192.605 151.435 191.419C151.693 189.824 151.496 188.183 150.871 186.709C150.261 185.054 149.225 183.398 148.313 181.47C147.823 180.478 147.455 179.424 147.215 178.333C147.007 177.162 146.973 175.964 147.115 174.782C147.546 172.296 148.265 169.877 149.256 167.581C150.152 165.172 151.111 162.615 151.149 159.883C151.079 157.223 150.301 154.639 148.908 152.434C147.656 150.216 146.21 148.213 145.043 146.144C143.306 143.071 142.16 139.658 141.671 136.105C141.183 132.551 141.362 128.929 142.199 125.451C142.383 124.696 142.608 123.952 142.871 123.225L143.072 122.654C143.096 122.588 143.124 122.524 143.157 122.463C143.153 122.534 143.137 122.604 143.111 122.67C143.111 122.827 143.01 123.018 142.941 123.249C142.779 123.754 142.585 124.508 142.353 125.493C141.746 128.276 141.542 131.143 141.751 133.993C142.05 138.22 143.288 142.309 145.36 145.92C146.52 147.956 147.965 149.951 149.225 152.202C150.485 154.454 151.598 157.044 151.544 159.9C151.49 162.755 150.516 165.338 149.611 167.746C148.627 170.007 147.91 172.389 147.478 174.84C147.333 175.979 147.359 177.136 147.555 178.267C147.778 179.326 148.129 180.35 148.599 181.312C149.48 183.208 150.523 184.888 151.126 186.61C151.756 188.138 151.939 189.835 151.652 191.477C151.365 192.711 150.66 193.788 149.673 194.498C149.061 194.957 148.325 195.186 147.578 195.152C147.387 195.141 147.197 195.105 147.014 195.044C146.943 195.033 146.875 195.007 146.813 194.969Z" fill="#263238"/>
<path d="M200.44 198.545C199.389 199.778 198.407 200.018 197.928 197.618C196.869 192.329 194.241 188.671 192.911 188.215C191.582 187.76 190.538 189.614 191.458 190.963C192.327 192.537 192.99 194.23 193.429 195.996C193.835 197.396 194.02 198.859 193.978 200.325C193.939 201.591 193.862 202.717 193.785 203.718C193.785 203.718 193.29 209.512 191.783 212.202L205.085 222.614L210.372 216.225C210.372 216.225 213.812 213.063 212.822 208.304C211.833 203.544 207.868 197.486 207.868 197.486C206.507 196.774 210.094 188.439 211.485 185.724C212.876 183.009 212.258 181.221 210.643 181.519C209.553 181.726 205.116 189.929 203.794 192.652C203.075 194.142 201.707 197.063 200.44 198.545Z" fill="#FFBE9D"/>
<path d="M140.846 282.531C136.982 270.637 138.095 268.908 137.523 264.653L134.995 282.035L146.914 321.582L100.352 321.872H61.2416L69.6434 270.861L60.8706 259.166L60.6851 264.132L34.0884 267.997C34.0884 267.997 46.3162 228.359 52.291 211.151C58.2658 193.943 69.6434 188.282 69.6434 188.282C91.2856 180.361 107.44 179.897 126.153 184.78C133.821 186.815 140.769 191.198 146.147 197.394C151.526 203.59 155.101 211.33 156.436 219.668C156.436 219.9 156.514 220.131 156.545 220.355L163.679 257.03L191.736 209.024L208.347 223.003L191.443 255.938L177.197 284.286C167.087 298.266 145.716 295.295 140.869 282.548" fill="#455A64"/>
<path d="M73.4539 228.375C73.338 228.375 73.7554 226.066 74.0568 223.219C74.3582 220.371 74.4433 218.046 74.5669 218.046C74.7423 219.784 74.7059 221.54 74.4587 223.268C74.3338 225.01 73.996 226.727 73.4539 228.375Z" fill="#263238"/>
<path d="M134.338 222.615C134.338 222.615 134.438 222.722 134.601 222.962L135.289 224.013C135.656 224.565 135.992 225.14 136.293 225.735C136.649 226.43 137.113 227.192 137.484 228.102C137.94 229.076 138.345 230.076 138.697 231.098C139.122 232.191 139.47 233.399 139.803 234.658C140.493 237.43 140.928 240.269 141.101 243.133C141.236 245.995 141.135 248.865 140.8 251.708C140.707 252.362 140.622 252.999 140.537 253.62C140.452 254.241 140.313 254.829 140.212 255.408C140.019 256.558 139.741 257.61 139.509 258.578C139.277 259.546 138.999 260.399 138.782 261.152C138.566 261.905 138.342 262.551 138.148 263.064L137.708 264.264C137.665 264.407 137.605 264.543 137.53 264.67C137.551 264.52 137.587 264.373 137.638 264.231C137.731 263.908 137.855 263.503 138.002 263.014C138.148 262.526 138.373 261.847 138.566 261.086C138.759 260.324 139.037 259.472 139.231 258.503C139.424 257.535 139.702 256.484 139.888 255.333C139.98 254.762 140.104 254.175 140.189 253.554C140.274 252.933 140.344 252.312 140.429 251.658C140.742 248.838 140.832 245.995 140.699 243.158C140.528 240.325 140.111 237.516 139.455 234.765C139.107 233.507 138.805 232.282 138.396 231.231C138.06 230.21 137.673 229.21 137.236 228.235C136.881 227.316 136.463 226.579 136.108 225.851C135.752 225.122 135.443 224.576 135.165 224.104L134.539 223.012C134.462 222.885 134.395 222.752 134.338 222.615Z" fill="#263238"/>
<path d="M163.354 269.901C163.206 267.548 163.188 265.188 163.3 262.832C163.286 260.474 163.402 258.116 163.648 255.772C163.805 258.125 163.823 260.486 163.702 262.841C163.725 265.2 163.609 267.558 163.354 269.901Z" fill="#263238"/>
<path d="M168.973 269.23C167.989 267.173 167.125 265.053 166.384 262.882C165.52 260.762 164.779 258.586 164.166 256.368C165.155 258.422 166.02 260.543 166.755 262.716C167.617 264.838 168.358 267.013 168.973 269.23Z" fill="#263238"/>
<path d="M139.045 295.237H138.844L138.265 295.179L137.329 295.079C136.904 295.023 136.475 295.007 136.046 295.03C133.309 295.021 130.585 295.442 127.961 296.28C124.622 297.24 120.781 298.862 116.367 300.244C114.065 301.005 111.69 301.488 109.287 301.684C106.688 301.906 104.075 301.548 101.612 300.633C99.197 299.619 96.8693 298.381 94.6556 296.933C92.6203 295.6 90.4847 294.451 88.2711 293.499C84.4645 292.021 80.3607 291.647 76.3756 292.414C74.8471 292.69 73.3497 293.137 71.908 293.747C70.8156 294.196 69.7563 294.733 68.739 295.353C67.912 295.891 67.2704 296.313 66.8685 296.644L66.3893 297C66.2811 297.074 66.227 297.116 66.2192 297.107C66.9769 296.4 67.7917 295.765 68.654 295.212C69.6688 294.573 70.7283 294.02 71.823 293.556C73.274 292.915 74.7846 292.441 76.3292 292.141C80.3668 291.329 84.5334 291.681 88.4025 293.159C90.6417 294.107 92.8009 295.259 94.8565 296.602C97.0391 298.036 99.3359 299.261 101.72 300.261C104.13 301.16 106.689 301.512 109.233 301.295C111.608 301.106 113.957 300.637 116.236 299.897C120.626 298.539 124.491 296.95 127.83 296.023C130.474 295.207 133.218 294.825 135.969 294.889C136.399 294.884 136.828 294.917 137.252 294.988L138.195 295.129L138.767 295.228C138.86 295.216 138.953 295.219 139.045 295.237Z" fill="#F5F5F5"/>
<path d="M136.672 263.908C136.464 263.96 136.252 263.991 136.038 263.999L135.266 264.074C134.964 264.115 134.624 264.223 134.238 264.306C132.081 264.932 130.055 265.994 128.27 267.434C127.111 268.303 125.89 269.338 124.576 270.439C123.186 271.642 121.739 272.766 120.24 273.808C118.582 274.96 116.752 275.8 114.829 276.291C113.796 276.53 112.74 276.644 111.683 276.63C110.6 276.602 109.522 276.472 108.46 276.241C104.155 275.281 100.445 273.17 97.0825 271.407C94.1402 269.731 91.0104 268.462 87.7686 267.633C85.5903 267.095 83.3304 267.056 81.1368 267.517C80.5429 267.657 79.9591 267.842 79.39 268.072C79.1944 268.16 78.9929 268.232 78.7871 268.287C78.9687 268.169 79.1602 268.069 79.3591 267.989C79.9201 267.722 80.5021 267.509 81.0982 267.352C83.315 266.822 85.6136 266.822 87.8305 267.352C91.094 268.147 94.2478 269.391 97.2139 271.051C100.584 272.798 104.286 274.884 108.506 275.819C109.546 276.043 110.601 276.17 111.66 276.2C112.685 276.213 113.709 276.108 114.713 275.885C116.611 275.408 118.417 274.585 120.054 273.452C121.545 272.426 122.987 271.321 124.375 270.141C125.697 269.048 126.933 268.03 128.116 267.161C129.941 265.727 132.014 264.694 134.214 264.124C134.609 264.049 134.987 263.966 135.258 263.933H136.031C136.244 263.912 136.458 263.904 136.672 263.908Z" fill="#F5F5F5"/>
<path d="M179.478 277.251C179.406 277.38 179.32 277.499 179.223 277.607C178.967 277.938 178.685 278.246 178.38 278.525C177.242 279.544 175.91 280.284 174.477 280.694C172.352 281.294 170.138 281.437 167.961 281.116C165.333 280.66 162.747 279.962 160.231 279.03C157.725 278.105 155.134 277.467 152.502 277.127C150.356 276.926 148.195 277.208 146.156 277.954C144.785 278.456 143.534 279.275 142.493 280.355C142.216 280.654 141.958 280.972 141.72 281.307C141.64 281.431 141.547 281.545 141.441 281.646C141.494 281.507 141.564 281.376 141.65 281.257C141.866 280.895 142.111 280.554 142.384 280.239C143.41 279.087 144.672 278.209 146.071 277.673C148.139 276.865 150.347 276.545 152.541 276.738C155.197 277.053 157.813 277.683 160.34 278.617C162.837 279.546 165.401 280.252 168.007 280.727C170.141 281.054 172.313 280.941 174.407 280.396C175.81 280.018 177.125 279.337 178.272 278.393C179.083 277.706 179.439 277.209 179.478 277.251Z" fill="#F5F5F5"/>
<path d="M192.779 253.14C192.779 253.14 192.718 253.223 192.571 253.355C192.36 253.551 192.129 253.72 191.883 253.86C190.956 254.367 189.924 254.614 188.884 254.58C187.353 254.521 185.849 254.12 184.47 253.405C182.925 252.643 181.325 251.551 179.57 250.649C178.105 249.822 176.476 249.385 174.82 249.373C173.164 249.362 171.53 249.776 170.055 250.582C168.84 251.276 167.737 252.173 166.786 253.239C166.786 253.239 166.832 253.14 166.94 252.974C167.107 252.736 167.287 252.509 167.481 252.296C168.193 251.502 169.017 250.834 169.924 250.318C171.277 249.538 172.772 249.083 174.306 248.985C176.182 248.904 178.046 249.343 179.717 250.26C181.502 251.178 183.071 252.279 184.594 253.041C185.925 253.754 187.376 254.174 188.861 254.274C189.862 254.337 190.864 254.144 191.782 253.711C192.447 253.388 192.756 253.099 192.779 253.14Z" fill="#F5F5F5"/>
<path d="M202.055 231.901C201.761 232.05 201.459 232.18 201.15 232.29C200.344 232.68 199.568 233.139 198.832 233.664C197.74 234.475 196.568 235.155 195.338 235.692C193.801 236.317 192.166 236.618 190.523 236.578C188.879 236.541 187.258 236.155 185.754 235.444C184.532 234.863 183.405 234.078 182.414 233.118C181.744 232.482 181.147 231.763 180.637 230.974C180.451 230.693 180.328 230.469 180.242 230.312C180.157 230.155 180.127 230.072 180.142 230.064C180.882 231.078 181.708 232.017 182.608 232.87C183.604 233.769 184.718 234.505 185.916 235.055C187.383 235.728 188.958 236.09 190.553 236.123C192.146 236.155 193.731 235.874 195.23 235.295C196.447 234.782 197.612 234.139 198.708 233.375C199.468 232.867 200.273 232.443 201.112 232.108C201.414 231.987 201.732 231.917 202.055 231.901Z" fill="#F5F5F5"/>
<path d="M161.561 246.725C161.561 246.767 161.244 246.659 160.688 246.667C159.894 246.696 159.117 246.917 158.415 247.313C157.383 247.942 156.412 248.68 155.517 249.515C154.368 250.539 153.034 251.297 151.598 251.741C148.973 252.552 146.166 252.359 143.66 251.195C142.911 250.848 142.204 250.403 141.557 249.871C141.315 249.682 141.094 249.462 140.9 249.217C141.805 249.877 142.765 250.445 143.768 250.913C146.23 251.966 148.949 252.111 151.497 251.327C154.527 250.5 156.359 247.917 158.307 247.04C159.051 246.649 159.875 246.464 160.703 246.502C160.926 246.512 161.147 246.554 161.36 246.626C161.491 246.676 161.569 246.709 161.561 246.725Z" fill="#F5F5F5"/>
<path d="M156.56 225.71C155.656 225.134 154.68 224.699 153.661 224.419C152.557 224.15 151.413 224.125 150.299 224.344C148.934 224.593 147.656 225.228 146.597 226.182C145.599 227.236 144.667 228.358 143.806 229.542C143.062 230.534 142.074 231.285 140.954 231.711C140.197 232.016 139.366 232.036 138.597 231.769C138.391 231.695 138.198 231.586 138.025 231.446C137.909 231.355 137.855 231.297 137.863 231.289C137.87 231.281 138.133 231.454 138.635 231.603C139.374 231.797 140.151 231.733 140.854 231.421C141.906 230.975 142.827 230.235 143.52 229.278C144.376 228.063 145.314 226.918 146.326 225.851C147.428 224.852 148.765 224.197 150.191 223.955C151.353 223.744 152.544 223.801 153.685 224.121C154.45 224.328 155.179 224.669 155.841 225.131C156.109 225.279 156.353 225.475 156.56 225.71Z" fill="#F5F5F5"/>
<path d="M95.1348 247.073C95.1348 247.032 95.7763 247.296 96.9666 247.495C98.6512 247.747 100.364 247.665 102.022 247.255C104.481 246.633 106.841 245.623 109.024 244.259C111.529 242.802 114.164 240.948 117.179 239.4C120.02 237.969 123.078 237.094 126.207 236.818C128.754 236.584 131.32 236.734 133.828 237.265C135.515 237.635 137.162 238.189 138.744 238.92C139.308 239.16 139.725 239.408 140.011 239.557C140.162 239.624 140.305 239.711 140.437 239.814C140.437 239.814 139.81 239.541 138.69 239.077C137.097 238.424 135.452 237.931 133.774 237.604C131.288 237.12 128.753 237.001 126.238 237.248C123.157 237.543 120.149 238.414 117.349 239.822C114.373 241.32 111.737 243.191 109.202 244.64C106.983 246.003 104.582 246.997 102.083 247.586C100.39 247.974 98.6422 248.011 96.9357 247.694C96.4755 247.605 96.0231 247.474 95.5831 247.305C95.4245 247.25 95.2737 247.172 95.1348 247.073Z" fill="#F5F5F5"/>
<path d="M100.754 208.279C100.622 208.397 100.477 208.497 100.321 208.577C99.8888 208.825 99.436 209.03 98.9686 209.189C97.2289 209.736 95.3924 209.83 93.6121 209.462C92.3834 209.233 91.1812 208.864 90.0257 208.362C88.7034 207.781 87.4131 207.121 86.161 206.383C83.5253 204.852 80.6964 203.015 77.3805 202.03C75.7732 201.536 74.1237 201.218 72.4569 201.078C71.6839 200.978 70.8569 201.003 70.0839 200.978C69.311 200.954 68.5381 200.979 67.8038 201.111C65.173 201.375 62.5925 202.05 60.144 203.114C58.4996 203.847 56.9236 204.745 55.4368 205.796C54.9112 206.168 54.5325 206.499 54.2542 206.698C54.1241 206.815 53.9814 206.915 53.8291 206.996C53.9411 206.858 54.0682 206.736 54.2078 206.632C54.4629 206.408 54.8339 206.061 55.3518 205.655C56.8159 204.54 58.386 203.594 60.0358 202.833C62.4989 201.717 65.1043 201.002 67.7651 200.714C68.5381 200.614 69.311 200.606 70.0839 200.565C70.8569 200.523 71.6839 200.565 72.5032 200.656C74.1942 200.79 75.8675 201.112 77.4964 201.616C80.8741 202.617 83.734 204.496 86.3465 206.027C87.5743 206.773 88.8415 207.442 90.1416 208.03C91.2712 208.538 92.4473 208.918 93.6508 209.164C95.3943 209.551 97.1975 209.506 98.9222 209.032C99.5458 208.819 100.157 208.567 100.754 208.279Z" fill="#F5F5F5"/>
<path d="M153.769 210.522C153.769 210.522 153.7 210.613 153.53 210.754C153.292 210.959 153.033 211.135 152.757 211.275C151.686 211.776 150.505 211.948 149.348 211.772C147.639 211.525 146.007 210.85 144.587 209.802C142.948 208.701 141.356 207.211 139.486 206.003C137.732 204.858 135.757 204.161 133.712 203.966C132.043 203.795 130.359 203.932 128.734 204.372C127.243 204.827 125.812 205.483 124.475 206.325C124.475 206.325 124.552 206.234 124.722 206.102C124.969 205.897 125.227 205.709 125.495 205.539C126.48 204.9 127.541 204.408 128.649 204.074C130.306 203.584 132.03 203.413 133.743 203.569C135.846 203.754 137.881 204.46 139.686 205.63C141.596 206.872 143.18 208.37 144.78 209.471C146.151 210.499 147.72 211.184 149.371 211.474C150.487 211.67 151.631 211.547 152.687 211.118C153.398 210.82 153.746 210.522 153.769 210.522Z" fill="#F5F5F5"/>
<path d="M73.0828 230.221C72.6972 230.223 72.3122 230.192 71.9311 230.13L68.8393 229.716L64.2017 229.046C62.4626 228.789 60.5612 228.516 58.5516 228.425C56.6723 228.313 54.7876 228.472 52.9478 228.897C51.4507 229.258 50.0179 229.876 48.7044 230.726C47.5082 231.545 46.4434 232.565 45.5508 233.747C45.5855 233.647 45.6323 233.552 45.6899 233.466C45.8385 233.203 46.0065 232.954 46.1923 232.721C46.8624 231.842 47.658 231.082 48.5498 230.469C49.8733 229.56 51.3318 228.9 52.8628 228.516C54.7347 228.057 56.6574 227.882 58.5748 227.994C60.4753 228.105 62.3691 228.323 64.2481 228.648L68.8857 229.41L71.9775 229.964C72.3533 230.008 72.7237 230.094 73.0828 230.221Z" fill="#F5F5F5"/>
<path d="M138.644 147.145C138.971 147.631 139.21 148.178 139.347 148.759C139.735 150.344 139.775 152.005 139.463 153.609C139.162 155.662 138.319 157.955 137.863 160.587C137.617 161.954 137.617 163.358 137.863 164.725C138.201 166.192 138.625 167.635 139.131 169.046C139.65 170.49 139.912 172.026 139.904 173.573C139.816 175.013 139.51 176.427 138.999 177.762C138.087 180.294 137.082 182.496 136.959 184.532C136.739 185.608 136.802 186.728 137.14 187.768C137.479 188.809 138.079 189.728 138.876 190.425C138.746 190.362 138.624 190.281 138.512 190.185C138.179 189.915 137.887 189.592 137.647 189.225C136.815 187.824 136.47 186.154 136.673 184.507C136.761 183.375 136.995 182.261 137.368 181.196C137.739 180.054 138.226 178.871 138.651 177.604C139.138 176.31 139.427 174.941 139.509 173.549C139.509 172.05 139.247 170.565 138.736 169.17C138.226 167.741 137.803 166.279 137.469 164.792C137.206 163.373 137.206 161.914 137.469 160.496C137.956 157.806 138.821 155.53 139.146 153.535C139.471 151.968 139.471 150.343 139.146 148.776C139.014 148.22 138.846 147.676 138.644 147.145Z" fill="#455A64"/>
<path d="M118.47 191.932C119.822 183.829 121.391 175.328 121.391 175.328C121.391 175.328 131.44 175.436 135.683 162.193C139.749 149.57 142.686 119.152 142.686 119.152C136.257 114.869 128.758 112.794 121.196 113.207C113.635 113.62 106.372 116.5 100.383 121.462L90.3812 187.446C89.2218 195.102 94.4468 202.27 102.114 203.536C109.859 204.86 117.179 199.646 118.47 191.932Z" fill="#FFBE9D"/>
<path d="M135.219 141.947C135.149 142.403 134.914 142.812 134.566 143.086C134.218 143.36 133.784 143.477 133.356 143.412C133.146 143.39 132.942 143.322 132.756 143.214C132.571 143.106 132.407 142.96 132.274 142.784C132.142 142.607 132.044 142.404 131.985 142.187C131.927 141.969 131.91 141.741 131.934 141.517C132.006 141.061 132.241 140.654 132.589 140.381C132.936 140.107 133.37 139.989 133.797 140.052C134.01 140.067 134.217 140.13 134.406 140.236C134.595 140.342 134.762 140.488 134.895 140.666C135.029 140.844 135.127 141.05 135.182 141.27C135.238 141.491 135.251 141.721 135.219 141.947Z" fill="#263238"/>
<path d="M138.187 140.49C137.948 140.681 136.873 139.464 135.096 139.141C133.318 138.818 131.896 139.514 131.741 139.241C131.672 139.125 131.942 138.752 132.576 138.413C133.428 137.991 134.382 137.864 135.304 138.049C136.219 138.213 137.059 138.689 137.7 139.406C138.187 139.961 138.303 140.408 138.187 140.49Z" fill="#263238"/>
<path d="M117.194 138.885C117.126 139.342 116.892 139.752 116.543 140.026C116.195 140.3 115.759 140.416 115.332 140.35C115.12 140.334 114.913 140.271 114.724 140.166C114.536 140.061 114.37 139.915 114.236 139.738C114.103 139.561 114.005 139.356 113.949 139.137C113.892 138.917 113.879 138.688 113.909 138.463C113.982 138.007 114.216 137.599 114.563 137.324C114.911 137.049 115.344 136.929 115.772 136.989C115.982 137.012 116.186 137.079 116.372 137.187C116.558 137.295 116.722 137.441 116.854 137.618C116.986 137.794 117.085 137.997 117.143 138.215C117.202 138.432 117.219 138.66 117.194 138.885Z" fill="#263238"/>
<path d="M119.761 137.684C119.521 137.875 118.447 136.658 116.669 136.335C114.891 136.012 113.469 136.708 113.315 136.435C113.237 136.319 113.508 135.946 114.149 135.607C114.999 135.185 115.95 135.057 116.87 135.243C117.786 135.409 118.629 135.884 119.274 136.6C119.761 137.188 119.877 137.635 119.761 137.684Z" fill="#263238"/>
<path d="M123.834 152.856C124.812 152.728 125.801 152.728 126.779 152.856C127.235 152.856 127.675 152.856 127.807 152.558C127.925 152.068 127.901 151.551 127.737 151.077C127.513 149.835 127.266 148.536 127.018 147.178C126.029 141.624 125.403 137.097 125.612 137.055C125.82 137.014 126.787 141.475 127.776 147.029C128.008 148.395 128.224 149.703 128.441 150.944C128.626 151.577 128.599 152.259 128.363 152.873C128.27 153.03 128.144 153.163 127.995 153.261C127.847 153.358 127.679 153.418 127.505 153.436C127.249 153.469 126.989 153.469 126.732 153.436C125.748 153.372 124.774 153.177 123.834 152.856Z" fill="#263238"/>
<path d="M121.391 175.328C115.386 174.3 109.766 171.503 105.16 167.25C105.16 167.25 107.749 177.389 120.688 178.515L121.391 175.328Z" fill="#EB996E"/>
<path d="M122.35 157.251C122.091 156.737 121.713 156.303 121.253 155.988C120.793 155.674 120.266 155.49 119.722 155.455C119.329 155.418 118.933 155.467 118.558 155.6C118.183 155.732 117.838 155.945 117.542 156.225C117.253 156.493 117.049 156.85 116.958 157.247C116.867 157.644 116.892 158.062 117.032 158.443C117.258 158.833 117.588 159.141 117.979 159.328C118.371 159.516 118.805 159.573 119.227 159.494C120.11 159.342 120.954 158.998 121.708 158.484C121.934 158.374 122.136 158.217 122.303 158.021C122.384 157.93 122.438 157.815 122.457 157.691C122.476 157.567 122.461 157.44 122.412 157.326" fill="#EB996E"/>
<path d="M118.454 153.187C118.748 153.187 118.454 155.265 119.807 157.02C121.159 158.774 123.262 158.932 123.231 159.221C123.231 159.354 122.713 159.527 121.855 159.395C120.737 159.197 119.717 158.588 118.972 157.673C118.263 156.788 117.903 155.643 117.967 154.478C118.037 153.609 118.331 153.146 118.454 153.187Z" fill="#263238"/>
<path d="M108.986 111.769C112.387 119.798 123.401 129.565 131.903 133.033C131.131 131.377 126.354 126.717 125.581 125.062C129.013 129.052 133.967 134.473 139.215 135.822C139.82 136.038 140.47 136.061 141.086 135.888C141.429 135.691 141.725 135.413 141.951 135.074C142.178 134.736 142.328 134.346 142.392 133.935C143.407 129.878 144.009 125.715 144.185 121.52C144.368 117.987 143.281 114.513 141.148 111.811C138.249 108.318 133.519 106.646 128.959 105.611C125.14 104.783 121.144 104.188 117.365 104.966C113.585 105.744 110.083 108.061 108.947 111.48" fill="#263238"/>
<path d="M88.7042 142.005C88.6395 138.889 88.7479 135.771 89.0288 132.669C89.8868 125.575 91.9505 99.8008 114.172 106.431L111.807 113.052C111.807 113.052 113.515 129.606 102.107 138.545C102.107 138.545 102.153 155.099 94.2616 161.083C94.2616 161.083 88.7506 149.852 88.7042 142.046" fill="#263238"/>
<path d="M102.586 137.411C101.273 136.843 99.8401 136.671 98.4428 136.915C97.0396 137.177 95.7898 138.022 94.9645 139.265C94.2025 140.557 93.9263 142.11 94.1916 143.611C94.4634 145.112 95.0501 146.527 95.9075 147.749C96.4617 148.664 97.2082 149.426 98.0872 149.976C98.5301 150.24 99.0268 150.383 99.5336 150.393C100.04 150.403 100.542 150.28 100.993 150.034" fill="#FFBE9D"/>
<path d="M100.375 146.094C100.522 146.185 99.7877 146.922 98.6051 146.359C98.2928 146.176 98.0174 145.93 97.7945 145.633C97.5716 145.336 97.4058 144.995 97.3066 144.629C97.0578 143.81 96.9607 142.947 97.0206 142.088C97.0671 141.16 97.4206 140.279 98.0177 139.605C98.2666 139.314 98.5743 139.088 98.9173 138.945C99.2603 138.802 99.6295 138.744 99.9964 138.777C101.279 138.992 101.542 140.01 101.372 140.01C101.202 140.01 100.831 139.522 99.9577 139.58C99.0843 139.638 98.1491 140.623 98.0795 142.129C98.0099 143.636 98.2959 145.125 98.9838 145.606C99.6717 146.086 100.313 145.961 100.375 146.094Z" fill="#EB996E"/>
<path d="M99.2083 152.418C97.1678 153.245 96.3639 156.043 96.6808 158.369C96.9977 160.695 98.1262 162.797 98.8914 164.99C99.6566 167.184 100.012 169.816 98.8373 171.802C97.8866 173.416 96.0934 174.352 95.3591 176.081C94.0451 179.177 96.7349 182.388 97.6779 185.633C98.3078 187.824 98.1104 190.191 97.1283 192.228C96.1463 194.264 94.4577 195.807 92.4251 196.526C90.3925 197.244 88.178 197.08 86.2568 196.07C84.3357 195.059 82.8611 193.282 82.1496 191.121C79.9777 184.499 85.5506 177.298 83.9815 170.494" fill="#263238"/>
<path d="M97.3917 109.237C91.5097 114.277 84.6537 126.221 84.1591 134.266C83.8344 139.406 84.7388 144.877 82.5668 149.471C81.3378 152.07 79.2509 154.065 77.4886 156.291C75.7263 158.518 74.2037 161.257 74.4742 164.163C74.8684 168.26 78.6635 171.198 79.2818 175.262C79.6528 177.687 78.8258 180.112 78.3157 182.513C77.8055 184.913 77.6896 187.686 79.1891 189.548C81.6006 192.528 88.387 199.282 90.2189 195.855C92.0507 192.428 89.9097 179.765 89.6314 175.825C88.1732 155.026 89.9229 134.112 94.8101 113.921" fill="#263238"/>
<path d="M77.3725 184.201C77.6564 184.195 77.9389 184.156 78.215 184.085C78.5431 183.979 78.8498 183.807 79.1193 183.58C79.4799 183.261 79.7769 182.866 79.9928 182.422C80.2717 181.872 80.4402 181.266 80.4874 180.642C80.5336 179.9 80.3977 179.158 80.0932 178.49C79.2749 176.876 78.0858 175.511 76.6382 174.525C75.8653 173.921 75.0305 173.309 74.2189 172.58C73.3466 171.841 72.6101 170.934 72.047 169.907C71.7673 169.35 71.5617 168.754 71.4364 168.135C71.323 167.495 71.2866 166.841 71.3281 166.19C71.453 164.841 71.8233 163.531 72.418 162.333C73.5774 159.85 75.6025 157.855 77.4884 155.712C78.4652 154.648 79.338 153.481 80.0932 152.227C80.829 150.921 81.3517 149.491 81.6391 147.998C82.242 144.952 82.0642 141.864 81.9715 138.893C81.9251 137.42 81.8787 135.955 81.9174 134.523C81.9174 133.811 81.9869 133.099 82.072 132.404C82.1106 132.056 82.1338 131.709 82.1802 131.361L82.3657 130.351C83.2781 125.574 85.38 121.149 88.4487 117.547C89.6221 116.18 90.9164 114.938 92.3134 113.839C92.9549 113.383 93.5423 112.945 94.1066 112.589C94.6708 112.233 95.1964 111.918 95.6524 111.678L96.9587 111.041C97.3374 110.875 97.6775 110.759 97.9403 110.66L98.551 110.437C98.6179 110.406 98.6879 110.384 98.7597 110.37C98.7597 110.37 98.6978 110.37 98.5664 110.478L97.9713 110.735C97.7085 110.859 97.3761 110.983 97.0051 111.157L95.722 111.827C95.2428 112.076 94.7404 112.423 94.1761 112.762C93.6119 113.102 93.0477 113.59 92.4216 114.029C91.0472 115.139 89.7739 116.386 88.6187 117.754C85.6218 121.335 83.5749 125.711 82.6903 130.426C82.6285 130.757 82.5744 131.088 82.5125 131.427C82.4507 131.766 82.443 132.106 82.4121 132.445C82.327 133.132 82.2884 133.827 82.2652 134.539C82.2652 135.955 82.2652 137.403 82.327 138.876C82.4275 141.823 82.613 144.935 81.9947 148.064C81.6935 149.605 81.1499 151.08 80.387 152.426C79.6158 153.703 78.7249 154.893 77.7281 155.977C75.8189 158.12 73.8634 160.057 72.704 162.474C72.1289 163.622 71.7667 164.878 71.6373 166.174C71.5941 166.791 71.6252 167.411 71.7301 168.02C71.8426 168.598 72.0326 169.155 72.2943 169.675C72.8285 170.671 73.534 171.55 74.3735 172.266C75.1464 172.986 75.9889 173.607 76.7619 174.219C78.2341 175.258 79.434 176.683 80.2478 178.358C80.5621 179.063 80.6955 179.846 80.6343 180.625C80.5728 181.275 80.3859 181.903 80.0855 182.471C79.8504 182.926 79.5324 183.326 79.1503 183.647C78.8637 183.875 78.5381 184.041 78.1918 184.135C77.9824 184.192 77.766 184.214 77.5503 184.201H77.3725Z" fill="#263238"/>
<path d="M86.2999 195.35C86.2147 195.337 86.1315 195.312 86.0525 195.276C85.8235 195.16 85.6185 194.997 85.4496 194.796C85.1315 194.4 84.901 193.932 84.7752 193.428C84.6494 192.923 84.6316 192.395 84.7231 191.882C84.8699 190.5 85.8593 189.159 86.6554 187.512C87.0719 186.625 87.294 185.649 87.3047 184.656C87.2938 183.542 87.0921 182.44 86.7095 181.403C86.2974 180.248 85.7796 179.139 85.1637 178.093C84.5221 177.008 83.7569 175.932 83.0303 174.782C82.2498 173.586 81.5867 172.308 81.0516 170.966C80.4635 169.525 80.2602 167.938 80.4642 166.381C80.7587 164.756 81.4707 163.251 82.5202 162.035C83.525 160.761 84.7076 159.652 85.8129 158.427C86.946 157.222 87.8837 155.823 88.5878 154.288C89.2725 152.675 89.7409 150.967 89.979 149.214C90.5046 145.655 90.3655 142.104 90.3964 138.686C90.3964 136.973 90.4505 135.284 90.5819 133.645L90.6979 132.412L90.8834 131.212C91.0021 130.419 91.162 129.635 91.3626 128.861C92.7568 123.457 95.5265 118.574 99.3625 114.757C100.844 113.306 102.457 112.017 104.178 110.908C104.951 110.461 105.67 110.015 106.358 109.683C107.045 109.352 107.679 109.038 108.267 108.856L109.813 108.285C110.269 108.136 110.671 108.053 110.987 107.962L111.714 107.78C111.795 107.758 111.878 107.741 111.961 107.73C111.885 107.77 111.805 107.801 111.722 107.821L111.003 108.045C110.694 108.144 110.3 108.252 109.851 108.401L108.305 109.013C107.726 109.236 107.115 109.576 106.427 109.899C105.739 110.221 105.044 110.726 104.278 111.148C102.587 112.267 101.002 113.562 99.548 115.014C95.752 118.829 93.0244 123.701 91.6718 129.085C91.4691 129.842 91.3141 130.614 91.208 131.394L91.0225 132.578L90.9066 133.794C90.7829 135.45 90.7365 137.105 90.7365 138.76C90.847 142.298 90.7101 145.839 90.3269 149.355C90.0782 151.148 89.5969 152.894 88.8969 154.545C88.1762 156.131 87.2091 157.575 86.0371 158.816C84.924 160.049 83.7183 161.158 82.7598 162.391C81.7519 163.545 81.0664 164.979 80.7811 166.53C80.5787 168.018 80.7688 169.538 81.3299 170.916C81.8461 172.237 82.4885 173.496 83.2468 174.674C83.9656 175.825 84.7308 176.909 85.3723 177.985C86.0029 179.03 86.5362 180.139 86.9646 181.296C87.3442 182.373 87.5405 183.514 87.5443 184.665C87.526 185.694 87.2853 186.706 86.8409 187.619C86.0062 189.275 85.0245 190.591 84.8622 191.907C84.7662 192.4 84.7733 192.909 84.8829 193.398C84.9925 193.888 85.2018 194.345 85.496 194.738C85.7198 195.001 85.994 195.21 86.2999 195.35Z" fill="#455A64"/>
<path d="M140.776 135.624C140.679 135.524 140.594 135.413 140.521 135.292L139.857 134.274C139.254 133.339 138.442 132.064 137.46 130.517L129.669 118.027C128.269 115.73 126.598 113.635 124.699 111.794C123.133 110.318 121.288 109.222 119.289 108.583C117.942 108.152 116.528 108.011 115.13 108.169C114.141 108.301 113.584 108.5 113.584 108.45C113.702 108.383 113.827 108.331 113.955 108.293C114.326 108.162 114.706 108.065 115.092 108.003C116.514 107.777 117.965 107.873 119.351 108.285C121.406 108.898 123.31 109.992 124.923 111.488C126.864 113.335 128.566 115.451 129.986 117.778C133.078 122.662 135.729 127.123 137.716 130.343C138.651 131.924 139.431 133.223 140.034 134.183L140.637 135.243C140.7 135.362 140.747 135.49 140.776 135.624Z" fill="#455A64"/>
<path d="M107.958 186.353L117.936 232.315L126.701 230.66L119.683 184.201L107.958 186.353Z" fill="#263238"/>
<path d="M116.893 180.443C119.76 179.433 120.595 174.045 120.595 170.817C120.595 166.447 116.993 164.27 114.002 163.848C112.497 163.671 110.978 163.984 109.642 164.746C108.306 165.508 107.215 166.683 106.512 168.119C105.85 169.578 105.588 171.208 105.758 172.82C105.928 174.432 106.522 175.959 107.471 177.224C108.45 178.458 109.719 179.392 111.146 179.93C112.573 180.468 114.108 180.591 115.594 180.286" fill="#263238"/>
<path d="M101.435 178.324L103.722 197.345L130.536 191.228L125.836 174.26L101.435 178.324Z" fill="#FF725E"/>
<g opacity="0.4">
<path opacity="0.4" d="M127.142 178.978L107.958 181.718L109.975 189.531L129.028 185.807L127.142 178.978Z" fill="#FAFAFA"/>
</g>
<path d="M120.595 171.272C119.886 171.49 119.158 171.634 118.423 171.703C117.078 171.901 115.208 172.117 113.136 172.257C111.065 172.398 109.187 172.448 107.826 172.431C107.09 172.47 106.352 172.428 105.624 172.307C106.349 172.176 107.083 172.115 107.819 172.125C109.179 172.059 111.05 171.968 113.113 171.827C115.177 171.686 117.04 171.521 118.392 171.397C119.122 171.283 119.859 171.241 120.595 171.272Z" fill="#FAFAFA"/>
<path d="M110.029 195.905L121.067 193.388V194.547L110.223 196.782L110.029 195.905Z" fill="#263238"/>
<path d="M92.0972 221.431L96.8584 218.749C96.8584 218.749 104.766 200.747 106.953 199.803C108.754 199.025 118.972 195.747 122.528 194.605C122.854 194.502 123.204 194.54 123.504 194.712C123.804 194.884 124.028 195.176 124.128 195.524C124.23 195.861 124.207 196.228 124.063 196.547C123.919 196.866 123.665 197.114 123.355 197.237L111.467 201.74L111.714 202.799L123.78 198.934C125.04 198.628 126.431 200.449 122.613 202.129L112.642 205.862L112.835 206.532L123.502 204.67C124.035 204.571 125.48 204.405 125.65 204.96C125.65 204.96 126.671 206.127 123.873 207.484C122.906 207.948 113.948 210.58 113.948 210.58L114.535 211.325L124.336 210.389C124.68 210.359 125.021 210.469 125.293 210.696C125.565 210.922 125.748 211.25 125.805 211.614C125.858 211.984 125.777 212.361 125.579 212.669C125.38 212.977 125.08 213.192 124.738 213.27L114.644 215.563L109.195 224.162C108.035 225.998 106.325 227.355 104.348 228.011L94.5242 231.28L92.0972 221.431Z" fill="#FFBE9D"/>
<path d="M122.551 194.605C122.551 194.605 122.435 194.68 122.211 194.771L121.19 195.152L117.426 196.451L111.853 198.363L108.553 199.472L107.695 199.762L107.254 199.911C107.116 199.945 106.983 200.001 106.86 200.076C106.378 200.46 105.96 200.927 105.624 201.459C104.266 203.551 103.039 205.739 101.952 208.006C100.916 210.083 100.02 211.979 99.2777 213.576L97.5309 217.359C97.3376 217.772 97.183 218.112 97.0516 218.385C96.9202 218.658 96.8739 218.741 96.8584 218.733C96.8806 218.601 96.9196 218.472 96.9743 218.352L97.3917 217.292C97.7627 216.374 98.3115 215.058 99.0226 213.444C99.7337 211.83 100.568 209.918 101.62 207.824C102.702 205.528 103.931 203.316 105.299 201.202C105.666 200.621 106.127 200.114 106.659 199.704C106.806 199.618 106.962 199.552 107.123 199.505L107.564 199.356L108.429 199.075L111.737 197.982L117.341 196.161L121.129 194.969L122.157 194.671C122.285 194.635 122.418 194.612 122.551 194.605Z" fill="#EB996E"/>
<path d="M38.5018 288.243C40.2765 290.049 42.3804 291.442 44.6817 292.337C46.983 293.232 49.432 293.607 51.8753 293.441C54.3185 293.275 56.7034 292.57 58.8804 291.371C61.0574 290.171 62.9796 288.503 64.5265 286.471L106.265 231.347L91.4247 211.184L39.0737 260.184C37.2211 261.924 35.7267 264.058 34.6854 266.45C33.644 268.842 33.0785 271.44 33.0247 274.078C32.971 276.717 33.4301 279.339 34.373 281.777C35.3158 284.215 36.7219 286.417 38.5018 288.243Z" fill="#455A64"/>
<path d="M66.9848 284.187C66.9848 284.187 67.0389 284.088 67.1626 283.906C67.2862 283.723 67.4795 283.459 67.7191 283.127L69.9065 280.123L78.1073 268.999L106.119 231.214V231.471L95.8308 217.516L91.2704 211.316H91.5564C76.3064 225.685 63.0196 238.821 53.3193 248.099C48.4807 252.751 44.5696 256.476 41.8489 259.017L38.7571 261.922L37.9378 262.667L37.6519 262.915C37.6519 262.915 37.7369 262.816 37.9147 262.642L38.6876 261.864L41.7793 258.892L53.1724 247.884C62.8187 238.548 76.0745 225.379 91.3245 210.994L91.4869 210.845L91.6183 211.027L96.1786 217.218L106.428 231.214L106.52 231.347L106.428 231.479L78.3083 269.181L69.9915 280.231L67.7577 283.194L67.1703 283.947L66.9848 284.187Z" fill="#263238"/>
<path d="M72.3097 276.514C72.0518 277.038 71.6936 277.498 71.2586 277.863C70.0567 278.859 68.5809 279.4 67.0615 279.403C66.0179 279.443 64.9748 279.309 63.9698 279.006C62.832 278.639 61.7314 278.151 60.6848 277.549C58.4665 276.332 56.2095 274.619 53.5042 273.7C50.9548 272.832 48.263 272.55 45.6048 272.872C43.4373 273.158 41.3279 273.821 39.3595 274.834C38.034 275.527 36.7867 276.379 35.6417 277.375C34.8687 278.103 34.4282 278.534 34.405 278.501C34.3818 278.468 34.49 278.377 34.6755 278.161C34.861 277.946 35.147 277.615 35.5412 277.251C36.6617 276.191 37.9032 275.287 39.2358 274.561C41.2178 273.489 43.356 272.786 45.5584 272.483C48.2691 272.112 51.0228 272.377 53.6279 273.261C56.4105 274.205 58.6752 275.943 60.8626 277.16C61.879 277.765 62.9514 278.256 64.0625 278.625C65.0296 278.937 66.0363 279.085 67.0461 279.064C68.5178 279.091 69.9589 278.612 71.1581 277.698C71.571 277.337 71.9561 276.941 72.3097 276.514Z" fill="#F5F5F5"/>
<path d="M92.9398 248.546C92.9398 248.546 92.8393 248.654 92.6306 248.811C92.3138 249.043 91.9804 249.248 91.6335 249.424C90.3941 250.112 89.0428 250.539 87.6529 250.682C85.5781 250.891 83.49 250.475 81.624 249.482C79.5062 248.406 77.512 246.676 75.2241 245.269C73.0541 243.973 70.6806 243.114 68.2213 242.736C66.2119 242.424 64.1709 242.424 62.1615 242.736C60.8059 242.943 59.4726 243.292 58.1809 243.779C57.2688 244.126 56.7664 244.358 56.7587 244.325C56.7509 244.292 56.8669 244.242 57.0988 244.118C57.433 243.933 57.7761 243.767 58.1268 243.621C59.4143 243.069 60.7542 242.67 62.1228 242.43C64.1685 242.071 66.2529 242.043 68.3063 242.347C70.8157 242.707 73.2388 243.572 75.4483 244.896C77.7671 246.328 79.7535 248.058 81.8095 249.126C83.616 250.109 85.6402 250.541 87.6606 250.375C89.023 250.263 90.3554 249.89 91.5949 249.275C92.4683 248.853 92.9166 248.513 92.9398 248.546Z" fill="#F5F5F5"/>
<path d="M209.467 200.863C209.424 201.194 209.347 201.519 209.235 201.831C209.065 202.444 208.779 203.329 208.393 204.397C208.006 205.465 207.504 206.731 206.885 208.097C206.598 208.864 206.167 209.56 205.618 210.141C205.453 210.307 205.258 210.434 205.045 210.514C204.832 210.595 204.606 210.628 204.381 210.61C204.156 210.592 203.936 210.524 203.737 210.411C203.537 210.297 203.362 210.141 203.222 209.951C202.934 209.587 202.744 209.147 202.673 208.676C202.623 208.233 202.651 207.783 202.758 207.352C202.97 206.578 203.25 205.827 203.593 205.109L205.139 201.45L206.236 198.967C206.358 198.66 206.511 198.369 206.692 198.098C206.621 198.424 206.518 198.74 206.383 199.042C206.113 199.712 205.788 200.548 205.394 201.525C205 202.501 204.451 203.851 203.848 205.216C203.538 205.919 203.28 206.647 203.075 207.393C202.99 207.775 202.969 208.17 203.013 208.56C203.068 208.951 203.223 209.318 203.461 209.62C203.568 209.767 203.702 209.889 203.856 209.977C204.009 210.065 204.178 210.117 204.352 210.131C204.525 210.144 204.7 210.118 204.863 210.054C205.027 209.99 205.176 209.89 205.301 209.76C205.81 209.222 206.215 208.58 206.491 207.873C207.125 206.524 207.651 205.283 208.037 204.231C208.424 203.18 208.81 202.319 208.996 201.748C209.121 201.435 209.279 201.138 209.467 200.863Z" fill="#EB996E"/>
<path d="M206.507 212.525C206.507 212.591 205.982 212.384 205.085 212.343C203.888 212.288 202.705 212.642 201.707 213.353L201.383 213.593V213.17C201.425 212.396 201.425 211.619 201.383 210.845C201.261 209.016 200.897 207.216 200.3 205.498C199.844 204.173 199.443 203.404 199.528 203.371C199.985 203.973 200.345 204.653 200.594 205.382C201.286 207.105 201.698 208.941 201.815 210.812C201.866 211.605 201.866 212.402 201.815 213.195L201.514 213.013C202.585 212.269 203.862 211.942 205.131 212.086C205.616 212.113 206.088 212.263 206.507 212.525Z" fill="#EB996E"/>
<path d="M212.111 205.456C212.072 205.724 211.994 205.984 211.879 206.226C211.709 206.706 211.446 207.401 211.106 208.254L210.557 209.653C210.355 210.209 210.096 210.739 209.784 211.234C209.602 211.522 209.367 211.768 209.094 211.956C208.82 212.144 208.513 212.27 208.192 212.326C207.832 212.389 207.462 212.313 207.149 212.111C206.836 211.895 206.597 211.575 206.469 211.201C206.263 210.504 206.234 209.761 206.384 209.049C206.495 208.408 206.658 207.78 206.87 207.17C207.23 206.148 207.651 205.153 208.13 204.19L209.12 202.245C209.216 201.993 209.343 201.757 209.498 201.541C209.227 202.503 208.87 203.434 208.432 204.322C208.076 205.15 207.659 206.16 207.265 207.302C207.072 207.896 206.922 208.505 206.816 209.123C206.687 209.762 206.714 210.427 206.894 211.052C206.983 211.33 207.162 211.566 207.398 211.718C207.634 211.869 207.913 211.927 208.184 211.879C208.456 211.834 208.716 211.73 208.949 211.574C209.181 211.417 209.381 211.211 209.537 210.969C209.841 210.504 210.1 210.008 210.31 209.487L210.897 208.105C211.268 207.277 211.57 206.59 211.786 206.127C211.866 205.889 211.975 205.663 212.111 205.456Z" fill="#EB996E"/>
</svg>
